<svg width="264" height="302" viewBox="0 0 264 302" fill="none" xmlns="http://www.w3.org/2000/svg">
<path d="M182.288 133.142C188.629 129.497 196.469 129.497 202.811 133.142L219.2 142.605C219.723 142.898 220.291 143.128 220.867 143.288C220.983 143.332 221.098 143.359 221.231 143.376C221.799 143.509 222.375 143.58 222.943 143.607H223.031C223.102 143.607 223.147 143.607 223.218 143.58C223.741 143.58 224.264 143.492 224.787 143.376C224.876 143.376 224.974 143.35 225.062 143.305C225.612 143.146 226.153 142.915 226.659 142.649C226.703 142.623 226.774 142.605 226.818 142.578L259.579 123.653C261.93 122.305 263.366 119.804 263.366 117.09V79.2488C263.366 76.5351 261.93 74.0253 259.579 72.6862L226.818 53.761C224.468 52.413 221.577 52.413 219.227 53.761L186.465 72.6862C186.465 72.6862 186.377 72.7572 186.332 72.7749C185.836 73.0676 185.348 73.44 184.94 73.848C184.869 73.9189 184.825 73.981 184.754 74.052C184.39 74.4422 184.071 74.8767 183.778 75.329C183.734 75.4 183.69 75.462 183.645 75.5596C183.37 76.0651 183.14 76.5883 182.98 77.1559C182.936 77.2712 182.909 77.3865 182.891 77.5195C182.758 78.0871 182.661 78.6813 182.661 79.3021V98.2273C182.661 105.526 178.741 112.337 172.4 115.982C166.058 119.627 158.219 119.627 151.877 115.982L135.488 106.519C134.965 106.227 134.397 105.996 133.821 105.836C133.705 105.792 133.59 105.765 133.457 105.748C132.889 105.615 132.313 105.544 131.745 105.517H131.497C130.947 105.517 130.424 105.606 129.901 105.721C129.812 105.721 129.714 105.748 129.652 105.765C129.085 105.925 128.561 106.156 128.029 106.431C127.985 106.457 127.914 106.475 127.87 106.502L95.1085 125.427C92.7583 126.775 91.3215 129.276 91.3215 131.989V169.831C91.3215 172.545 92.7583 175.054 95.1085 176.394L127.87 195.319C127.87 195.319 127.985 195.363 128.029 195.39C128.553 195.665 129.076 195.895 129.652 196.055C129.741 196.081 129.839 196.099 129.927 196.126C130.45 196.241 130.974 196.312 131.497 196.33C131.568 196.33 131.612 196.356 131.683 196.356H131.772C132.34 196.356 132.916 196.268 133.484 196.126C133.599 196.099 133.714 196.055 133.847 196.037C134.415 195.877 134.965 195.647 135.515 195.354L151.904 185.892C158.245 182.247 166.085 182.247 172.417 185.892C178.732 189.537 182.679 196.356 182.679 203.655V222.58C182.679 223.192 182.767 223.786 182.909 224.354C182.936 224.469 182.953 224.602 182.998 224.718C183.157 225.267 183.388 225.808 183.654 226.314C183.698 226.385 183.743 226.447 183.796 226.544C184.071 226.997 184.39 227.431 184.78 227.822C184.851 227.892 184.896 227.955 184.967 228.025C185.375 228.433 185.854 228.779 186.359 229.099C186.403 229.125 186.448 229.169 186.492 229.187L219.253 248.112C220.415 248.795 221.736 249.141 223.04 249.141C224.344 249.141 225.665 248.795 226.827 248.112L259.588 229.187C261.939 227.839 263.375 225.338 263.375 222.625V184.783C263.375 182.069 261.939 179.56 259.588 178.22L226.827 159.295C226.827 159.295 226.712 159.251 226.668 159.224C226.144 158.949 225.621 158.719 225.053 158.559C224.965 158.541 224.894 158.541 224.805 158.515C224.282 158.382 223.732 158.311 223.209 158.311H222.96C222.393 158.311 221.825 158.4 221.249 158.541C221.133 158.568 221.018 158.612 220.912 158.63C220.344 158.79 219.794 159.02 219.244 159.313L202.855 168.776C196.54 172.42 188.674 172.42 182.342 168.776C176.027 165.131 172.08 158.311 172.08 151.012C172.08 143.713 176 136.902 182.342 133.249L182.315 133.16L182.288 133.142Z" fill="white"/>
<path d="M3.79567 123.688L36.5568 142.613C37.7186 143.296 39.0401 143.642 40.3438 143.642C41.6475 143.642 42.9689 143.296 44.1307 142.613L76.8919 123.688C76.8919 123.688 76.9806 123.617 77.0249 123.599C77.5305 123.307 78.0005 122.934 78.4173 122.526C78.4883 122.455 78.5326 122.393 78.6036 122.322C78.9672 121.932 79.2865 121.497 79.588 121.045C79.6323 120.974 79.6767 120.912 79.721 120.814C79.996 120.309 80.2266 119.786 80.3862 119.218C80.4305 119.103 80.4571 118.988 80.4749 118.855C80.6079 118.287 80.7055 117.693 80.7055 117.081V98.1557C80.7055 90.857 84.6255 84.046 90.9666 80.4011C97.3078 76.7562 105.148 76.7562 111.489 80.4011L127.878 89.8637C128.402 90.1564 128.969 90.3869 129.546 90.5466C129.661 90.5909 129.776 90.6175 129.909 90.6353C130.477 90.7683 131.027 90.8392 131.621 90.8658H131.71C131.781 90.8658 131.825 90.8392 131.896 90.8392C132.419 90.8392 132.942 90.7506 133.466 90.6353C133.554 90.6353 133.652 90.6087 133.741 90.5643C134.308 90.4047 134.831 90.1741 135.364 89.8992C135.408 89.8814 135.479 89.8548 135.523 89.8282L168.284 70.903C170.635 69.555 172.071 67.0541 172.071 64.3404V26.4988C172.071 23.7851 170.635 21.2753 168.284 19.9362L135.523 1.011C133.173 -0.337 130.282 -0.337 127.932 1.011L95.1704 19.9362C95.1704 19.9362 95.0817 20.0072 95.0374 20.0249C94.5407 20.3176 94.0618 20.69 93.645 21.098C93.574 21.1689 93.5297 21.231 93.4587 21.3019C93.0951 21.6922 92.7758 22.1267 92.4743 22.579C92.43 22.6499 92.3856 22.712 92.3413 22.8096C92.0663 23.3151 91.8357 23.8383 91.6761 24.4059C91.6318 24.5212 91.6052 24.6365 91.5874 24.7695C91.4455 25.3371 91.3568 25.9313 91.3568 26.5521V45.4773C91.3568 52.776 87.4368 59.5869 81.0957 63.2407C74.7811 66.8856 66.9146 66.8856 60.5734 63.2407L44.184 53.7781C43.6607 53.4854 43.0931 53.2549 42.5166 53.0952C42.4013 53.0509 42.286 53.0243 42.153 53.0065C41.5854 52.8735 41.0089 52.8026 40.4413 52.776H40.193C39.6432 52.776 39.1199 52.8647 38.5966 52.9799C38.508 52.9799 38.4104 53.0066 38.3483 53.0243C37.7807 53.1839 37.2575 53.4145 36.7253 53.6894C36.681 53.716 36.61 53.7338 36.5657 53.7604L3.80453 72.6856C1.45432 74.0336 0.0175781 76.5345 0.0175781 79.2482V117.09C0.0175781 119.803 1.45432 122.313 3.80453 123.652V123.697L3.79567 123.688Z" fill="white"/>
<path d="M168.24 230.836L135.479 211.911C135.479 211.911 135.364 211.867 135.319 211.84C134.796 211.565 134.273 211.343 133.696 211.184C133.608 211.157 133.51 211.139 133.421 211.113C132.898 210.997 132.375 210.909 131.825 210.909H131.577C131.009 210.909 130.433 210.997 129.865 211.139C129.75 211.166 129.635 211.21 129.519 211.228C128.952 211.388 128.402 211.618 127.852 211.911L111.462 221.374C105.148 225.018 97.2813 225.018 90.9668 221.374C84.6256 217.729 80.7056 210.909 80.7056 203.61V184.685C80.7056 184.073 80.6169 183.479 80.475 182.902C80.4573 182.787 80.4307 182.654 80.3864 182.539C80.2267 181.989 79.9961 181.448 79.7212 180.942C79.6769 180.871 79.6325 180.809 79.5882 180.712C79.3132 180.26 78.994 179.825 78.6037 179.435C78.5328 179.364 78.4884 179.302 78.4264 179.231C78.0184 178.823 77.5395 178.477 77.034 178.158C76.9896 178.131 76.9453 178.087 76.9009 178.069L44.1398 159.144C41.7896 157.796 38.8983 157.796 36.5481 159.144L3.78696 178.069C1.43674 179.417 0 181.918 0 184.632V222.473C0 225.187 1.43674 227.697 3.78696 229.036L36.5481 247.961C36.5481 247.961 36.6634 248.005 36.7078 248.032C37.231 248.307 37.7543 248.529 38.3041 248.688C38.3928 248.715 38.4904 248.733 38.5791 248.759C39.1023 248.874 39.6078 248.945 40.1488 248.963C40.2198 248.963 40.2819 248.981 40.3351 248.981H40.4238C40.9914 248.981 41.5678 248.892 42.1088 248.75C42.2241 248.724 42.3572 248.679 42.4724 248.662C43.04 248.502 43.5899 248.271 44.1398 247.979L60.5292 238.516C66.8704 234.871 74.7104 234.871 81.0515 238.516C87.3661 242.161 91.3127 248.981 91.3127 256.28V275.205C91.3127 275.817 91.4013 276.411 91.5432 276.987C91.5698 277.103 91.5876 277.236 91.6319 277.351C91.7916 277.901 92.0222 278.442 92.2971 278.947C92.3414 279.018 92.3858 279.08 92.4301 279.178C92.705 279.63 93.0243 280.065 93.4145 280.455C93.4855 280.526 93.5298 280.588 93.5919 280.659C93.9999 281.067 94.4788 281.413 94.9843 281.732C95.0287 281.759 95.073 281.803 95.1262 281.821L127.887 300.746C129.049 301.429 130.371 301.775 131.674 301.775C132.978 301.775 134.299 301.429 135.461 300.746L168.222 281.821C170.573 280.473 172.009 277.972 172.009 275.258V237.416C172.009 234.703 170.573 232.193 168.222 230.854L168.24 230.836Z" fill="white"/>
</svg>
