<svg width="78" height="24" viewBox="0 0 78 24" fill="none" xmlns="http://www.w3.org/2000/svg">
<path fill-rule="evenodd" clip-rule="evenodd" d="M4.94043 12.8347C5.06743 12.7957 5.22543 12.8547 5.31344 12.9777C5.34144 13.0157 5.34944 13.0697 5.35944 13.1177C5.36244 13.1317 5.33944 13.1507 5.31944 13.1677C5.19543 13.0697 5.07943 12.9737 4.96543 12.8767C4.95443 12.8667 4.94943 12.8497 4.94043 12.8347ZM7.39847 9.41168C7.59347 9.37968 7.78847 9.35168 7.98648 9.36168C8.03678 9.3634 8.0866 9.37216 8.13448 9.38768C8.33648 9.45868 8.53649 9.53468 8.73549 9.61168C8.76349 9.62168 8.78549 9.64768 8.81049 9.66668L8.79749 9.69368C8.71038 9.66531 8.62371 9.63564 8.53749 9.60468C8.42248 9.56668 8.32448 9.52768 8.22248 9.50668C7.97248 9.45668 7.97248 9.46068 7.93048 9.49268L8.50448 9.63668C8.77949 9.77568 9.05449 9.91269 9.3275 10.0537C9.3695 10.0757 9.4175 10.1107 9.4345 10.1517C9.4605 10.2117 9.4975 10.2277 9.5515 10.2237C9.6175 10.2177 9.6835 10.2067 9.7645 10.1967L9.7245 10.2827C9.7755 10.3627 9.86651 10.3027 9.94051 10.3467C9.86651 10.4767 9.6935 10.4367 9.6065 10.5457L9.6675 10.6197L9.5475 10.7067C9.5475 10.8127 9.5095 10.8747 9.2415 10.9497L9.2675 11.0347L9.07149 11.0767L9.14149 11.2007H8.89149L8.88449 11.3377C8.80349 11.3277 8.72349 11.3197 8.64049 11.3107L8.58749 11.4337C8.56049 11.4257 8.53549 11.4227 8.51448 11.4107C8.44748 11.3727 8.38648 11.3547 8.31948 11.4167C8.30048 11.4337 8.25648 11.4307 8.22648 11.4247C8.20048 11.4187 8.17648 11.3957 8.15648 11.3827C8.04648 11.4777 8.04648 11.4777 7.94848 11.3857C7.89148 11.4317 7.82847 11.4597 7.76247 11.3967C7.69947 11.4237 7.63947 11.3767 7.58447 11.3827C7.51447 11.3897 7.48747 11.3477 7.45147 11.3127L7.32147 11.3457C7.30847 11.1097 7.12746 11.1557 6.98146 11.1427C6.98646 11.0707 7.03146 11.0507 7.07646 11.0487C7.13033 11.0469 7.1841 11.0544 7.23546 11.0707C7.39947 11.1207 7.55547 11.1907 7.73147 11.2087C7.93448 11.2297 8.13648 11.2377 8.33248 11.1937C8.59749 11.1347 8.85249 11.0447 9.03949 10.8287C9.08849 10.7727 9.12249 10.7017 9.1565 10.6337C9.1755 10.5957 9.17649 10.5497 9.13649 10.5177C9.0214 10.4257 8.89247 10.3524 8.75449 10.3007C8.77849 10.4207 8.72349 10.4827 8.63949 10.5217C8.63949 10.5357 8.63549 10.5467 8.63949 10.5517C8.71949 10.6667 8.72349 10.7117 8.63249 10.8187C8.56774 10.8968 8.49463 10.9675 8.41448 11.0297C8.32064 11.1028 8.20288 11.1382 8.08429 11.1289C7.9657 11.1197 7.85485 11.0665 7.77347 10.9797C7.72543 10.9324 7.68098 10.8816 7.64047 10.8277C7.56247 10.7207 7.56447 10.7197 7.60747 10.5917C7.44247 10.5117 7.47947 10.3657 7.50347 10.2277C7.51147 10.1777 7.53147 10.1317 7.55247 10.0647C7.51247 10.0787 7.48547 10.0817 7.46547 10.0967C7.32986 10.185 7.22067 10.3084 7.14946 10.4537C7.14246 10.4697 7.13946 10.4877 7.12946 10.5007C7.11746 10.5157 7.09546 10.5387 7.08446 10.5357C7.06446 10.5297 7.04746 10.5087 7.03446 10.4907C7.02646 10.4787 7.02746 10.4587 7.02246 10.4337H6.89646L6.94946 10.2617C6.93649 10.2453 6.92349 10.229 6.91046 10.2127L7.02046 9.92869C6.96046 9.95469 6.92946 9.97269 6.89646 9.97969C6.86646 9.98669 6.83246 9.97969 6.80146 9.97969C6.80146 9.94869 6.79146 9.90969 6.80546 9.88769C6.95446 9.66768 7.11046 9.45968 7.39847 9.41168Z" fill="white"/>
<path fill-rule="evenodd" clip-rule="evenodd" d="M7.0623 10.7876C7.0593 10.7496 7.0583 10.7126 7.0993 10.7256C7.1153 10.7316 7.1333 10.7736 7.1273 10.7926C7.1173 10.8326 7.0883 10.8246 7.0623 10.7876Z" fill="black"/>
<path fill-rule="evenodd" clip-rule="evenodd" d="M10.9834 0.00887335C11.2094 -0.00312684 11.4365 -0.00212682 11.6625 0.00887335C11.9095 0.0188735 12.1575 0.0328737 12.4025 0.0708743C12.8035 0.134875 13.2005 0.227877 13.5925 0.343879C14.0555 0.481881 14.5125 0.642883 14.9485 0.854886C16.1555 1.44766 17.1756 2.36186 17.8966 3.49693C18.1886 3.96593 18.4326 4.45994 18.6356 4.97595C18.8546 5.53196 19.0816 6.08597 19.2586 6.65898C19.4626 7.31299 19.5876 7.985 19.7166 8.65601C19.8136 9.16001 19.8986 9.66602 20.0066 10.167C20.1626 10.889 20.3356 11.6071 20.5006 12.3271C20.6866 13.1391 20.9006 13.9421 21.1306 14.7421C21.2326 15.0971 21.3236 15.4551 21.4126 15.8141C21.5226 16.2501 21.6146 16.6901 21.6666 17.1371C21.6976 17.4151 21.7326 17.6941 21.7396 17.9742C21.751 18.2676 21.7454 18.5614 21.7226 18.8542C21.6856 19.2672 21.6226 19.6722 21.4966 20.0662C21.2986 20.6688 20.9881 21.2283 20.5816 21.7152L20.4516 21.8712L20.4696 21.8942C20.5126 21.8712 20.5576 21.8532 20.5966 21.8262C20.7966 21.6882 20.9696 21.5192 21.1276 21.3362C21.5276 20.8762 21.8486 20.3632 22.1026 19.8072C22.3512 19.2694 22.4629 18.6785 22.4276 18.0872C22.4036 17.6631 22.3306 17.2531 22.1276 16.8741C22.1146 16.8471 22.1126 16.8141 22.0976 16.7531C22.1476 16.7881 22.1796 16.8011 22.1986 16.8251C22.3056 16.9551 22.4186 17.0831 22.5136 17.2231C22.8436 17.7171 22.9736 18.2752 22.9996 18.8632C23.0266 19.5505 22.864 20.2321 22.5296 20.8332C22.1696 21.4882 21.6426 21.9732 21.0036 22.3392C20.8106 22.4502 20.6096 22.5492 20.4086 22.6472C20.2516 22.7252 20.1606 22.8582 20.0906 23.0122C20.0582 23.0742 20.0385 23.1421 20.0328 23.2119C20.0272 23.2816 20.0356 23.3518 20.0576 23.4182C20.071 23.4633 20.0754 23.5105 20.0706 23.5572C20.0656 23.6342 19.9936 23.7122 19.9306 23.7192C19.8766 23.7252 19.8056 23.6762 19.7806 23.6032C19.7529 23.5278 19.7328 23.4497 19.7206 23.3702C19.6806 23.0562 19.5656 22.7702 19.4126 22.5002C19.2162 22.162 18.9701 21.8553 18.6826 21.5902C18.4314 21.3441 18.1232 21.1641 17.7856 21.0662C17.5591 21.0027 17.3275 20.9589 17.0935 20.9352C17.0185 20.9272 16.9435 20.8952 16.8735 20.9452C17.0535 21.0052 17.2365 21.0552 17.4115 21.1252C17.8456 21.2982 18.2316 21.5552 18.5916 21.8532C18.8996 22.1082 19.1716 22.3962 19.3856 22.7372C19.4836 22.8922 19.5716 23.0522 19.6126 23.2332C19.6396 23.3562 19.6546 23.4832 19.6796 23.6082C19.6926 23.6702 19.6776 23.7172 19.6266 23.7522C19.5796 23.7852 19.5046 23.7862 19.4636 23.7422C19.4288 23.7007 19.4017 23.6533 19.3836 23.6022C19.3536 23.5292 19.3456 23.4432 19.3056 23.3772C18.9174 22.7543 18.4377 22.1933 17.8826 21.7132C17.7225 21.5762 17.5535 21.4532 17.3455 21.3902C16.9695 21.2762 16.5925 21.1872 16.1955 21.2362C15.9825 21.2612 15.7685 21.2682 15.5555 21.2892C15.2909 21.3192 15.0379 21.4147 14.8195 21.5672C14.5165 21.7766 14.2369 22.018 13.9855 22.2872C13.6565 22.6292 13.3435 22.9862 13.0305 23.3422C12.8945 23.4972 12.7665 23.6612 12.7165 23.8732C12.7124 23.8902 12.7084 23.9072 12.7045 23.9242C12.7 23.9451 12.6888 23.9639 12.6725 23.9777C12.6562 23.9914 12.6358 23.9994 12.6145 24.0002H12.3045C12.2585 24.0002 12.2225 23.9522 12.2325 23.9062C12.2555 23.7982 12.2775 23.6902 12.3025 23.5822C12.3775 23.2572 12.4925 22.9472 12.6705 22.6652C12.6945 22.6262 12.7105 22.5772 12.7745 22.5852L12.7845 22.6342L12.8115 22.7112C13.0915 22.2762 13.3825 21.8772 13.8075 21.5762C14.0905 21.3722 14.3915 21.1982 14.6975 21.0262C14.6655 21.0172 14.6318 21.0166 14.5995 21.0242C14.4375 21.0672 14.2745 21.1082 14.1145 21.1582C13.7125 21.2822 13.3505 21.4882 13.0045 21.7242C12.8575 21.8242 12.7065 21.9172 12.5905 22.0572C12.152 22.5926 11.7917 23.1876 11.5205 23.8242C11.5041 23.8632 11.4908 23.9033 11.4805 23.9442C11.4763 23.9602 11.467 23.9743 11.4539 23.9844C11.4409 23.9946 11.4249 24.0001 11.4085 24.0002H10.9144C10.8744 24.0002 10.8524 23.9492 10.8784 23.9182C11.0014 23.7782 11.1244 23.6362 11.2554 23.5032C11.5305 23.2222 11.8355 22.9712 12.0325 22.6192C12.0595 22.5712 12.0955 22.5292 12.1275 22.4842C12.3655 22.1512 12.6675 21.8772 12.9455 21.5822C13.0275 21.4962 13.1205 21.4222 13.2055 21.3422C13.2345 21.3152 13.2585 21.2852 13.2845 21.2572L13.2665 21.2322L13.1315 21.2732C13.0975 21.2902 13.0615 21.3042 13.0295 21.3232C12.7815 21.4672 12.5355 21.6152 12.2865 21.7562C11.8785 21.9862 11.4615 22.1952 11.0774 22.4672C10.7964 22.6672 10.4864 22.8252 10.1884 23.0002C10.1684 23.0122 10.1444 23.0152 10.1084 23.0282C10.0934 22.8932 10.2514 22.8272 10.2164 22.6922C10.1834 22.7062 10.1524 22.7122 10.1314 22.7302C10.0204 22.8262 9.90443 22.9202 9.80343 23.0262C9.65542 23.1832 9.51942 23.3512 9.37842 23.5142C9.25342 23.6572 9.12842 23.8002 9.00542 23.9452C8.99155 23.9619 8.9743 23.9754 8.95482 23.9849C8.93534 23.9944 8.91407 23.9996 8.89241 24.0002H7.7644C7.77072 23.9866 7.77607 23.9726 7.7804 23.9582C7.8084 23.8682 7.8654 23.7862 7.8634 23.6782C7.7724 23.6602 7.7014 23.6792 7.65139 23.7552C7.60402 23.8256 7.55867 23.8973 7.51539 23.9702C7.50539 23.9862 7.49139 24.0002 7.47339 24.0002H7.38039C7.36139 24.0002 7.35139 23.9782 7.36339 23.9632C7.43439 23.8752 7.50339 23.7852 7.57239 23.6952C7.57339 23.6932 7.56639 23.6832 7.56039 23.6712C7.54639 23.6752 7.53039 23.6772 7.51539 23.6842C7.33939 23.7742 7.16339 23.8652 6.98838 23.9582C6.93659 23.9856 6.87895 24 6.82038 24.0002H4.20434C4.17834 24.0002 4.16534 23.9642 4.18534 23.9472C4.39534 23.7692 4.58735 23.5732 4.74335 23.3422C5.07835 22.8462 5.28136 22.2952 5.41036 21.7132C5.41436 21.6932 5.40736 21.6702 5.40436 21.6222C5.36736 21.6702 5.34536 21.6942 5.32836 21.7222C5.23661 21.8752 5.12421 22.0149 4.99435 22.1372C4.71435 22.3952 4.40434 22.5852 4.01134 22.6012C3.71433 22.6132 3.42333 22.6012 3.14633 22.4742C2.68632 22.2642 2.42431 21.9042 2.35231 21.4022C2.32731 21.2322 2.33531 21.2312 2.17031 21.1832C1.73744 21.0671 1.33079 20.8692 0.972292 20.6002C0.592256 20.3165 0.309876 19.9215 0.164279 19.4702C0.0378105 19.0679 -0.0163612 18.6464 0.00427669 18.2252C0.00627672 18.1912 0.020277 18.1582 0.0282771 18.1252C0.0602776 18.1482 0.0742778 18.1682 0.0782778 18.1912C0.111278 18.3442 0.137279 18.4992 0.174279 18.6512C0.260281 19.0062 0.431283 19.3152 0.690287 19.5712C0.948291 19.8272 1.2613 19.9902 1.6003 20.1032C1.95831 20.2212 2.31731 20.2412 2.67032 20.0872C2.90608 19.9806 3.11744 19.8268 3.29133 19.6352C3.61933 19.2872 3.82434 18.8752 3.93934 18.4122C3.94834 18.3782 3.94434 18.3412 3.94634 18.3022C3.93134 18.3082 3.92034 18.3082 3.91634 18.3132C3.88534 18.3632 3.85234 18.4132 3.82334 18.4652C3.53933 18.9672 3.14433 19.3522 2.62732 19.6002C2.27631 19.7702 1.90931 19.8552 1.5173 19.7592C1.12508 19.6745 0.778706 19.4462 0.546285 19.1192C0.347996 18.8469 0.221437 18.5292 0.178279 18.1952C0.139561 17.9005 0.146306 17.6017 0.19828 17.3091C0.24828 16.8701 0.664287 16.1391 0.940291 16.0381C0.920291 16.1011 0.905291 16.1501 0.88729 16.1981C0.84429 16.3141 0.790289 16.4251 0.757288 16.5431C0.681053 16.8096 0.663987 17.0894 0.707288 17.3631C0.740288 17.5751 0.797289 17.7791 0.911291 17.9631C1.05829 18.1992 1.2573 18.3702 1.5313 18.4282C1.6413 18.4512 1.7563 18.4422 1.86931 18.4462C2.00964 18.451 2.14691 18.4044 2.25531 18.3152C2.41931 18.1872 2.53732 18.0232 2.62132 17.8341C2.78932 17.4591 2.86132 17.0571 2.93032 16.6551C2.98032 16.3591 3.02332 16.0611 3.06332 15.7621C3.10232 15.4811 3.13432 15.1991 3.16733 14.9171C3.19333 14.6851 3.21533 14.4531 3.24133 14.2211C3.26533 13.9931 3.29333 13.7661 3.31733 13.5381C3.34133 13.3111 3.36433 13.0831 3.38633 12.8551C3.39933 12.7151 3.40833 12.5751 3.42033 12.4351L3.45733 12.0181C3.47933 11.7681 3.49833 11.5181 3.52233 11.27C3.53033 11.188 3.50233 11.138 3.43233 11.093C3.25068 10.9759 3.08525 10.8354 2.94032 10.675C2.84032 10.566 2.75232 10.447 2.65832 10.333C2.62332 10.291 2.60232 10.236 2.54232 10.215C2.60183 10.4273 2.69465 10.6288 2.81732 10.812C2.87732 10.904 2.94832 10.988 3.01332 11.077C3.07632 11.163 3.19533 11.192 3.24733 11.303C3.21933 11.306 3.20133 11.313 3.18733 11.309C3.11355 11.2918 3.04019 11.2728 2.96732 11.252C2.46874 11.1079 2.02203 10.8236 1.6803 10.433C1.2453 9.94603 1.02429 9.35702 0.970292 8.71001C0.938877 8.35711 0.943568 8.00193 0.984292 7.64999C1.05629 7.04798 1.2043 6.46397 1.4343 5.90496C1.5893 5.52896 1.7723 5.16395 1.96031 4.80295C2.16531 4.40994 2.42631 4.05294 2.72532 3.72693C3.23733 3.16792 3.82934 2.70291 4.45134 2.27891C5.16836 1.7889 5.92937 1.38089 6.72838 1.04589C7.24639 0.827886 7.7694 0.631883 8.3124 0.493881C8.96741 0.327878 9.62242 0.163876 10.2944 0.0788744C10.5234 0.048874 10.7524 0.0208735 10.9824 0.00887335H10.9834ZM9.13642 22.8292C9.06642 22.8892 8.98941 22.9402 8.92941 23.0092C8.69141 23.2792 8.46541 23.5582 8.2614 23.8782L8.2174 23.9862C8.25363 23.9775 8.28618 23.9576 8.3104 23.9292C8.48441 23.7392 8.66141 23.5512 8.82941 23.3552C8.93341 23.2332 9.02441 23.1002 9.11742 22.9692C9.14142 22.9352 9.14742 22.8892 9.16342 22.8492L9.13642 22.8292ZM10.7864 19.1342C10.5533 19.3141 10.3349 19.5124 10.1334 19.7272L9.76343 20.1132C9.65939 20.2253 9.53016 20.311 9.38642 20.3632C9.23718 20.4201 9.07913 20.4506 8.91941 20.4532C8.87541 20.4532 8.83241 20.4592 8.76841 20.4652C8.79641 20.5232 8.81141 20.5622 8.83241 20.5962C8.98241 20.8382 9.13342 21.0782 9.28242 21.3202C9.41842 21.5402 9.55842 21.7582 9.68143 21.9862C9.74943 22.1112 9.78643 22.2532 9.83743 22.3902C9.91443 22.4172 9.97743 22.3722 10.0394 22.3422C10.3294 22.2072 10.6184 22.0682 10.9064 21.9302C11.1194 21.8292 11.3435 21.7442 11.5425 21.6202C11.8895 21.4052 12.2225 21.1652 12.5605 20.9352C12.5755 20.9252 12.5865 20.9072 12.6025 20.8892C12.5795 20.8702 12.5645 20.8522 12.5465 20.8452C12.2595 20.7342 12.0195 20.5452 11.7765 20.3632C11.5993 20.2338 11.4303 20.0935 11.2704 19.9432C11.0871 19.7586 10.9471 19.5355 10.8604 19.2902C10.8414 19.2412 10.8154 19.1952 10.7854 19.1342H10.7864ZM4.93935 19.3982C4.87935 19.4942 4.84235 19.5922 4.80735 19.6912C4.68153 20.0571 4.4938 20.3988 4.25234 20.7012C4.05234 20.9512 3.79733 21.1132 3.49033 21.1942C3.26033 21.2542 3.02632 21.2702 2.79032 21.2642C2.74232 21.2622 2.69332 21.2662 2.63232 21.2692C2.64832 21.3092 2.65332 21.3352 2.66732 21.3542C2.76732 21.4992 2.89732 21.6002 3.06732 21.6492C3.22433 21.6952 3.38333 21.6832 3.56533 21.6722C3.74633 21.6352 3.90834 21.5572 4.05034 21.4382C4.28834 21.2392 4.45234 20.9842 4.58635 20.7062C4.76135 20.3432 4.85035 19.9552 4.92835 19.5622C4.93835 19.5092 4.93635 19.4522 4.93935 19.3982ZM19.8846 14.8121C19.8926 14.8411 19.9006 14.8691 19.9116 14.9191C19.9356 15.0741 19.9626 15.2291 19.9836 15.3831C20.0136 15.6021 20.0506 15.8201 20.0616 16.0401C20.0786 16.3841 20.0886 16.7291 20.0476 17.0731C20.0106 17.3881 19.9846 17.7061 19.9316 18.0192C19.8444 18.5429 19.6898 19.0531 19.4716 19.5372C19.4636 19.5552 19.4616 19.5762 19.4516 19.6192C19.4986 19.5892 19.5286 19.5772 19.5496 19.5552C19.6346 19.4722 19.7196 19.3882 19.7976 19.3002C20.0686 18.9952 20.2556 18.6402 20.3936 18.2572C20.5736 17.7591 20.6216 17.2461 20.5386 16.7261C20.4356 16.0761 20.2086 15.4631 19.9416 14.8451C19.9336 14.8267 19.9256 14.8084 19.9176 14.7901L19.8846 14.8121ZM4.79935 8.29C4.78976 8.34165 4.79603 8.39499 4.81735 8.443C4.94135 8.69401 5.06735 8.94401 5.19636 9.19301C5.22136 9.24202 5.26236 9.28302 5.22636 9.35602C4.94235 9.41602 4.64835 9.47502 4.34634 9.61102C4.40534 9.64902 4.44334 9.67102 4.47835 9.69802C4.52035 9.73002 4.59035 9.75602 4.56835 9.81802C4.55835 9.85102 4.49335 9.86603 4.45134 9.89003C4.46835 9.90003 4.49435 9.91103 4.51835 9.92603C4.68435 10.028 4.84835 10.133 4.96535 10.294C5.10335 10.486 5.19436 10.698 5.15336 10.938C5.07435 11.407 4.84735 11.7881 4.46335 12.0701C4.40934 12.1101 4.35734 12.1531 4.30234 12.1921C4.26324 12.2185 4.23267 12.2557 4.21438 12.2992C4.19609 12.3427 4.19086 12.3906 4.19934 12.4371C4.20901 12.5042 4.2275 12.5698 4.25434 12.6321C4.33734 12.8281 4.47435 12.9821 4.62935 13.1241C4.71235 13.2001 4.78835 13.2881 4.85135 13.3811C4.88901 13.4359 4.9112 13.4998 4.9156 13.5662C4.92 13.6325 4.90644 13.6988 4.87635 13.7581C4.85335 13.8081 4.82635 13.8571 4.80035 13.9061C4.77035 13.9661 4.77235 14.0171 4.82235 14.0681C4.86335 14.1101 4.90235 14.1571 4.93435 14.2061C4.97235 14.2641 5.01235 14.2851 5.08135 14.2561C5.18818 14.2149 5.30612 14.2128 5.41436 14.2501C5.57436 14.2961 5.71636 14.3761 5.85837 14.4601C5.98837 14.5371 6.12237 14.6091 6.25837 14.6791C6.32537 14.7141 6.39837 14.7291 6.47738 14.7051C6.54838 14.6831 6.60138 14.7151 6.62238 14.7811C6.64238 14.8451 6.61938 14.8891 6.54838 14.9201C6.47838 14.9501 6.41137 14.9831 6.33937 15.0081C6.23937 15.0431 6.13837 15.0811 6.02537 15.0851C6.01237 14.9781 6.13537 14.9971 6.15237 14.9261C5.94637 14.8001 5.50936 14.7811 5.35136 14.8921C5.41436 15.0041 5.38636 15.1021 5.25536 15.2051C5.12536 15.1051 5.23036 15.0031 5.25736 14.9051C5.2298 14.8993 5.20135 14.8992 5.17373 14.9047C5.14611 14.9102 5.11989 14.9212 5.09663 14.937C5.07338 14.9529 5.05357 14.9733 5.0384 14.9971C5.02323 15.0208 5.01301 15.0473 5.00835 15.0751C4.99335 15.1761 5.07535 15.2911 5.18636 15.2991C5.29436 15.3061 5.40436 15.2941 5.51236 15.2871C5.57236 15.2821 5.63236 15.2601 5.71136 15.2871C5.60836 15.4101 5.46336 15.4141 5.35436 15.4771C5.35636 15.5271 5.42436 15.5631 5.37336 15.6081C5.32036 15.6561 5.27836 15.6071 5.24136 15.5781C5.16136 15.5151 5.08135 15.4521 5.01035 15.3811C4.92044 15.3011 4.86431 15.1899 4.85335 15.0701C4.84897 15.0107 4.83442 14.9526 4.81035 14.8981C4.77835 14.8241 4.77835 14.7611 4.84335 14.7081C4.82535 14.6781 4.81535 14.6551 4.79835 14.6361C4.71232 14.5253 4.64601 14.4004 4.60235 14.2671C4.54935 14.1301 4.55635 14.0031 4.65035 13.8861C4.67435 13.8561 4.70035 13.8261 4.71435 13.7911C4.73734 13.7374 4.75314 13.6809 4.76135 13.6231C4.77835 13.4581 4.69735 13.3361 4.57935 13.2361C4.39334 13.0801 4.21934 12.9141 4.11934 12.6851C4.11434 12.6741 4.09534 12.6681 4.08234 12.6591C4.07134 12.6761 4.05834 12.6861 4.05734 12.6971C4.03834 12.8821 4.01234 13.0671 4.00534 13.2541C3.99134 13.6311 4.06334 13.9971 4.16734 14.3581C4.28534 14.7681 4.45634 15.1561 4.65535 15.5311C4.92235 16.0331 5.19236 16.5331 5.46736 17.0311C5.52236 17.1291 5.59736 17.2201 5.67536 17.3011C5.87337 17.5031 6.12737 17.5731 6.39937 17.5741C6.60138 17.5741 6.80338 17.5681 7.00438 17.5481C7.29939 17.5181 7.59439 17.4751 7.8884 17.4351C8.0714 17.4101 8.2534 17.3781 8.43641 17.3551C8.64641 17.3291 8.81641 17.4281 8.95841 17.5651C9.11842 17.7211 9.26342 17.8921 9.40542 18.0652C9.62542 18.3302 9.80243 18.6252 9.95943 18.9322C10.0094 19.0302 10.0294 19.0322 10.1064 18.9622C10.2364 18.8412 10.3664 18.7202 10.5004 18.6022C10.5674 18.5432 10.5884 18.4822 10.5674 18.3892C10.5091 18.1279 10.4805 17.8608 10.4824 17.5931C10.4844 17.4361 10.4884 17.2791 10.5004 17.1221C10.5154 16.8981 10.5304 16.6721 10.5604 16.4501C10.666 15.6818 10.7867 14.9157 10.9224 14.1521C11.0094 13.6591 11.1044 13.1681 11.1904 12.6751C11.2504 12.3281 11.3085 11.9811 11.3525 11.6321C11.3865 11.359 11.4075 11.082 11.4155 10.807C11.4265 10.475 11.4185 10.142 11.4175 9.80902C11.4175 9.73202 11.4215 9.65402 11.4075 9.57902C11.3795 9.43702 11.3975 9.42402 11.2454 9.38902C11.0451 9.34266 10.8425 9.30695 10.6384 9.28202C10.4924 9.26402 10.4314 9.22902 10.4174 9.09201C10.4114 9.04301 10.3924 8.99401 10.3764 8.94601C10.3674 8.92101 10.3524 8.89801 10.3304 8.85601L10.3054 9.12001C10.2964 9.21601 10.2764 9.23601 10.1784 9.23501C10.1234 9.23501 10.0684 9.22702 10.0144 9.22702C9.53842 9.22702 9.06242 9.21901 8.58841 9.25902C8.49341 9.26702 8.41541 9.24402 8.3624 9.15601C8.3224 9.09001 8.2744 9.03001 8.2284 8.97001C8.1654 8.88601 8.1424 8.87701 8.0464 8.91001C7.8514 8.97801 7.65839 9.04801 7.46439 9.12001C7.22153 9.21804 6.99416 9.35076 6.78938 9.51402C6.69307 9.58959 6.58354 9.64656 6.46638 9.68202C6.43338 9.69202 6.39637 9.69002 6.33937 9.69502C6.35937 9.62902 6.36337 9.58102 6.38637 9.54502C6.45038 9.44002 6.52138 9.34002 6.59138 9.23902C6.61438 9.20602 6.64038 9.17601 6.66438 9.14401L6.64938 9.12101L6.44838 9.15801C6.30237 9.19801 6.15237 9.22801 6.01137 9.28002C5.86337 9.33302 5.74536 9.30302 5.62536 9.20801C5.34331 8.98391 5.09625 8.71899 4.89235 8.422L4.79935 8.29ZM13.3915 17.2531L13.2445 17.3431C13.0245 17.4771 12.8045 17.6091 12.5855 17.7451C12.4925 17.8031 12.4015 17.8651 12.3155 17.9332C12.2305 18.0032 12.1915 18.0942 12.2435 18.2052C12.2905 18.3052 12.3365 18.4052 12.3905 18.4992C12.4375 18.5792 12.5145 18.6372 12.6035 18.6462C12.7135 18.6562 12.8315 18.6582 12.9395 18.6342C13.1565 18.5842 13.3115 18.4292 13.4675 18.2772C13.5105 18.2399 13.5417 18.1909 13.5571 18.1362C13.5726 18.0814 13.5717 18.0234 13.5545 17.9692C13.5085 17.7891 13.4755 17.6041 13.4365 17.4221C13.4255 17.3701 13.4095 17.3191 13.3915 17.2531ZM13.1345 14.8441C13.0145 15.1351 12.9295 15.4411 12.8095 15.7541C12.6585 16.1871 12.5155 16.6241 12.3745 17.0771C12.4105 17.0671 12.4285 17.0671 12.4415 17.0591C12.7025 16.8991 12.9635 16.7351 13.2265 16.5751C13.2805 16.5421 13.2975 16.4971 13.2915 16.4371C13.2795 16.3071 13.2675 16.1751 13.2575 16.0441L13.1895 15.1581C13.1815 15.0551 13.1695 14.9521 13.1605 14.8481C13.1515 14.8481 13.1435 14.8461 13.1345 14.8441ZM16.2155 6.71398L16.3145 6.99898C16.3945 7.22998 16.4735 7.46199 16.5545 7.71299L17.1345 9.66502C17.3215 10.295 17.5065 10.927 17.6925 11.5581C17.8066 11.9401 17.9276 12.3201 18.0356 12.7041C18.1076 12.9611 18.1616 13.2231 18.2216 13.5031C18.2656 13.7091 18.3086 13.9161 18.3486 14.1431C18.3826 14.2491 18.3716 14.3691 18.4256 14.4681L18.4506 14.4621L18.3826 14.1001C18.3446 13.8941 18.3056 13.6881 18.2696 13.4621C18.2546 13.3921 18.2406 13.3211 18.2236 13.2511C18.1286 12.8551 18.0466 12.4551 17.9336 12.0641C17.7375 11.379 17.5205 10.7 17.3155 10.018C17.1505 9.46902 16.9935 8.91801 16.8275 8.37C16.7585 8.143 16.6775 7.92 16.6015 7.67499L16.4845 7.33899C16.4475 7.23198 16.4095 7.12298 16.3695 7.01698C16.3295 6.91098 16.2855 6.80698 16.2425 6.70298C16.2335 6.70633 16.2245 6.70966 16.2155 6.71298V6.71398ZM5.22736 14.3041C5.16436 14.3031 5.11236 14.3181 5.09335 14.3871C5.15174 14.432 5.2228 14.4573 5.29642 14.4594C5.37003 14.4616 5.44245 14.4405 5.50336 14.3991C5.4124 14.3645 5.32035 14.3328 5.22736 14.3041ZM4.23234 11.9801C4.20634 11.9531 4.17534 11.9321 4.15734 11.9821C4.14534 12.0141 4.15034 12.0521 4.14734 12.0951C4.22934 12.0581 4.22934 12.0581 4.23234 11.9801ZM4.29434 10.791C4.27669 10.7941 4.25982 10.8006 4.24471 10.8102C4.22961 10.8198 4.21656 10.8323 4.20634 10.847C4.18746 10.8805 4.17877 10.9187 4.18134 10.957C4.18634 11.109 4.19134 11.263 4.20734 11.414C4.21813 11.4896 4.24039 11.5632 4.27334 11.6321C4.33434 11.7681 4.43034 11.7991 4.56135 11.7331C4.61635 11.7061 4.62135 11.6791 4.58635 11.6231C4.54143 11.5539 4.49841 11.4835 4.45734 11.412C4.44234 11.344 4.39134 11.281 4.42434 11.205C4.46435 11.115 4.34834 11.089 4.35034 11.015V10.874C4.34734 10.836 4.34434 10.787 4.29434 10.791ZM4.27734 9.82302C4.11277 9.82017 3.95079 9.86422 3.81034 9.95003C3.73433 9.99503 3.72633 10.02 3.76033 10.108C3.79433 10.195 3.83034 10.281 3.87534 10.362C3.93934 10.479 3.96534 10.487 4.08534 10.439C4.19075 10.3922 4.30663 10.3739 4.42134 10.386C4.62335 10.408 4.77835 10.522 4.92535 10.65L5.01735 10.727C5.02435 10.721 5.03135 10.714 5.03935 10.709C5.02035 10.604 5.00435 10.483 4.89035 10.445C4.73335 10.392 4.56635 10.37 4.38234 10.328L4.14234 10.323C4.38234 10.154 4.59435 10.279 4.82935 10.332C4.76635 10.217 4.67635 10.185 4.59935 10.139C4.51735 10.089 4.42934 10.047 4.34934 9.99503C4.28934 9.95803 4.22934 9.91503 4.27734 9.82302ZM14.5105 10.148C14.2805 10.138 14.0835 10.228 13.9025 10.359C13.8685 10.385 13.8425 10.424 13.7975 10.476C13.8845 10.502 13.9475 10.522 14.0295 10.541C14.0735 10.526 14.1175 10.511 14.1595 10.495C14.4655 10.381 14.7695 10.38 15.0635 10.526C15.1895 10.589 15.3005 10.566 15.4295 10.521C15.4095 10.49 15.3995 10.467 15.3845 10.45C15.2626 10.3202 15.1078 10.2259 14.9365 10.177C14.7965 10.133 14.6525 10.154 14.5105 10.148ZM6.99238 6.48297C6.98335 6.52692 6.98404 6.57232 6.99438 6.61598C7.07439 6.93698 7.15039 7.25898 7.23639 7.57799C7.34039 7.965 7.50639 8.328 7.69239 8.68101C7.71239 8.71801 7.7534 8.76101 7.7904 8.76801C7.87804 8.77913 7.96691 8.76121 8.0434 8.71701L7.57139 7.87699C7.34139 7.42899 7.16639 6.95698 6.99238 6.48297ZM9.39942 0.496881C9.19942 0.488881 8.99441 0.500881 8.79641 0.530881C8.56041 0.565882 8.3264 0.617883 8.0964 0.682884C7.8094 0.762885 7.52739 0.862886 7.24439 0.955888C7.20439 0.968888 7.17039 0.993888 7.13439 1.01389C7.16239 1.02789 7.18439 1.03189 7.20439 1.02789C7.49139 0.959888 7.7844 0.942888 8.0774 0.937888C8.2114 0.935888 8.34641 0.946888 8.47941 0.962888C8.66941 0.986888 8.86141 1.01089 9.04942 1.05289C9.50542 1.15689 9.92343 1.35289 10.3144 1.6089C10.7784 1.9149 11.2024 2.26891 11.5715 2.68691C11.7765 2.91892 11.9665 3.16192 12.1315 3.42593C12.3015 3.69993 12.4465 3.98693 12.5805 4.28194C12.8535 4.88295 13.0365 5.51396 13.1805 6.15797C13.2205 6.33097 13.2505 6.50597 13.2805 6.68198C13.2975 6.78598 13.3455 6.84898 13.4505 6.87198C13.5725 6.89998 13.6505 6.97698 13.6705 7.12298C13.6675 7.22498 13.6105 7.29699 13.5415 7.36299C13.4278 7.46201 13.3365 7.58403 13.2735 7.72099C13.3043 7.71615 13.3331 7.70262 13.3565 7.68199C13.4365 7.59599 13.5185 7.50999 13.5915 7.41699C13.67 7.32317 13.7157 7.20621 13.7215 7.08398C13.7305 7.03398 13.7435 6.98398 13.7455 6.93398C13.7525 6.80998 13.7285 6.78398 13.6025 6.76598C13.5775 6.76198 13.5535 6.75198 13.5295 6.75098C13.4475 6.74398 13.4045 6.68798 13.3925 6.61997C13.3595 6.42197 13.3885 6.26497 13.6395 6.21197C13.7255 6.19397 13.8135 6.18197 13.8995 6.16997C14.0575 6.14697 14.2145 6.11697 14.3725 6.10297C14.5125 6.09097 14.5625 6.13597 14.5985 6.26997C14.6065 6.29897 14.6165 6.32697 14.6195 6.35697C14.6385 6.53597 14.6115 6.58197 14.4785 6.64498C14.4515 6.65798 14.4235 6.66898 14.4005 6.68698C14.3774 6.7039 14.3597 6.72718 14.3495 6.75398C14.3105 6.89798 14.4225 7.13598 14.5555 7.19898L15.2285 7.51899C15.2515 7.52999 15.2785 7.53399 15.3035 7.54199L15.3215 7.51599C15.3065 7.50799 15.2895 7.50299 15.2775 7.49199C15.112 7.36051 14.9289 7.2528 14.7335 7.17198C14.6763 7.14588 14.6186 7.12087 14.5605 7.09698C14.5227 7.0815 14.4905 7.055 14.468 7.02093C14.4455 6.98685 14.4339 6.94679 14.4345 6.90598C14.4315 6.82098 14.4795 6.75198 14.5625 6.71898L14.6215 6.69398C14.7205 6.64998 14.7395 6.61797 14.7335 6.50697C14.7326 6.48579 14.7299 6.46472 14.7255 6.44397C14.6585 6.14997 14.6025 5.85396 14.5205 5.56396C14.325 4.85555 14.0478 4.17229 13.6945 3.52793C13.3262 2.85868 12.8574 2.24991 12.3045 1.7229C11.9584 1.38744 11.5611 1.10928 11.1274 0.898887C10.8067 0.740425 10.4643 0.629912 10.1114 0.570882C9.87573 0.532423 9.63799 0.507714 9.39942 0.496881ZM16.1185 6.45197C16.1285 6.46597 16.1365 6.47997 16.1565 6.48597L16.1345 6.44197L16.1185 6.45197ZM3.10532 3.91693C3.09656 3.92351 3.08621 3.92766 3.07532 3.92893C3.0628 3.94274 3.04944 3.95577 3.03532 3.96793C3.02532 3.97793 3.01532 3.98793 2.99032 4.00793L2.62732 4.36194C2.53932 4.44694 2.45731 4.53994 2.36131 4.61494C2.07731 4.83495 1.93631 5.14495 1.8173 5.46996C1.8085 5.49253 1.80608 5.5171 1.8103 5.54096C1.8233 5.59596 1.8433 5.64896 1.86231 5.70896L1.93631 5.73496C1.91931 5.79096 1.90631 5.83996 1.88931 5.88696C1.8313 6.05097 1.7713 6.21397 1.7143 6.37797C1.7093 6.39297 1.7223 6.41397 1.7333 6.45497C1.8133 6.27997 1.89131 6.12497 1.95831 5.96596C2.18631 5.42196 2.44231 4.89195 2.77732 4.40494C2.86732 4.27194 2.95932 4.13894 3.06032 4.00393C3.06432 3.99793 3.06732 3.99093 3.08232 3.97393C3.08332 3.95793 3.08532 3.94193 3.09732 3.93393L3.10532 3.91693ZM16.0815 6.32497C16.0844 6.32719 16.0868 6.33008 16.0883 6.33338C16.0899 6.33669 16.0906 6.34032 16.0905 6.34397C16.0883 6.34714 16.0863 6.35048 16.0845 6.35397C16.0865 6.36076 16.0888 6.36744 16.0915 6.37397L16.1095 6.39597C16.1115 6.38897 16.1165 6.37997 16.1145 6.37497C16.1115 6.36497 16.1025 6.35697 16.0945 6.33697C16.0902 6.333 16.0858 6.329 16.0815 6.32497ZM3.20133 4.47994C3.19833 4.48394 3.19333 4.48794 3.17433 4.49394C3.16933 4.50694 3.16333 4.51894 3.14332 4.54094C3.1048 4.59864 3.06341 4.65438 3.01932 4.70795C2.97132 4.77795 2.90332 4.76295 2.83832 4.74895C2.70432 4.72095 2.61032 4.76495 2.55132 4.89195C2.46231 5.07895 2.36431 5.26195 2.27831 5.45196C2.22931 5.55996 2.16831 5.66796 2.16031 5.81196C2.24131 5.81496 2.31431 5.81896 2.38831 5.81996H2.61632C2.59474 5.90932 2.56836 5.99745 2.53732 6.08397C2.52732 6.13597 2.51532 6.18697 2.50432 6.23897L2.52432 6.24297C2.54232 6.19697 2.56132 6.15097 2.59132 6.08997C2.65732 5.94796 2.72132 5.80496 2.79132 5.66396C2.81132 5.62396 2.82532 5.56396 2.90732 5.57196C2.90732 5.61496 2.91132 5.65596 2.90732 5.69596C2.90232 5.74096 2.89032 5.78596 2.87932 5.83896C3.02032 5.88196 2.96532 6.01297 2.99432 6.10797C3.09632 6.08597 3.09832 5.91296 3.24233 5.96397V6.16897L3.25933 6.17097L3.69833 5.11195C3.56833 5.11195 3.45233 5.09195 3.34033 5.14495C3.31633 5.15595 3.28233 5.14395 3.23233 5.14095C3.30733 4.99095 3.37133 4.86295 3.44333 4.72395C3.44953 4.7106 3.45799 4.69842 3.46833 4.68795C3.46833 4.67295 3.46733 4.65794 3.47633 4.64994L3.48233 4.62994C3.47733 4.63594 3.47233 4.64094 3.45433 4.64694C3.45033 4.65894 3.44533 4.67094 3.42833 4.69195C3.4209 4.70568 3.40982 4.71709 3.39633 4.72495C3.27333 4.88195 3.30633 4.88895 3.13833 4.83095C3.05932 4.80395 3.06032 4.80295 3.09132 4.68695C3.11932 4.64094 3.14732 4.59394 3.18933 4.53694C3.18933 4.52094 3.18833 4.50494 3.19633 4.49494L3.20133 4.47994ZM5.27436 3.80993C5.27136 3.81593 5.26736 3.82093 5.24736 3.82593C5.15336 3.95093 5.05335 4.07194 4.96735 4.20294C4.81235 4.44094 4.66635 4.68395 4.51635 4.92595C4.37634 5.14995 4.17134 5.29395 3.94134 5.40696C3.92434 5.41496 3.90134 5.41296 3.86234 5.41796C3.87434 5.35896 3.87834 5.30895 3.89534 5.26495C3.96358 5.08882 4.04 4.91596 4.12434 4.74695L4.11734 4.72695C4.10705 4.73706 4.09524 4.74549 4.08234 4.75195C4.05434 4.80195 4.02734 4.85195 3.98934 4.91595C3.72933 5.33996 3.54633 5.73296 3.54733 5.86596C3.57133 5.86996 3.59533 5.87696 3.62033 5.87896C3.79734 5.89196 3.80834 5.88596 3.88034 5.71396C3.91034 5.64396 3.95734 5.59396 4.02734 5.56396L4.20234 5.49396C4.24634 5.47596 4.28734 5.43696 4.34834 5.46196C4.35134 5.51196 4.33834 5.57196 4.36234 5.60696C4.40434 5.66896 4.40634 5.73196 4.40934 5.79996C4.41134 5.84896 4.42634 5.89796 4.43534 5.94696C4.46435 5.91296 4.47435 5.88196 4.48535 5.84996C4.62735 5.45996 4.76235 5.06795 4.91335 4.67994C5.01335 4.42394 5.13336 4.17594 5.24336 3.92393C5.25636 3.89393 5.25636 3.85693 5.27336 3.83193L5.27436 3.80993ZM9.26142 3.46993C9.26142 3.51493 9.27142 3.55393 9.28242 3.59293C9.32442 3.75293 9.37642 3.91093 9.40642 4.07294C9.43042 4.20594 9.42942 4.34294 9.43442 4.47894C9.43442 4.51194 9.41542 4.54594 9.40242 4.58894C9.30842 4.53094 9.35542 4.43094 9.29642 4.37394H9.17142C9.15642 4.44594 9.16142 4.52594 9.12542 4.57394C9.05942 4.65894 8.97041 4.72795 8.88941 4.80095C8.84641 4.83895 8.81141 4.81895 8.78641 4.77595L8.74041 4.68895C8.67541 4.72395 8.62341 4.75795 8.56841 4.78195C8.45241 4.83295 8.3334 4.87695 8.2184 4.92895C8.1334 4.96695 8.1284 4.98195 8.1484 5.07595C8.1624 5.15095 8.1824 5.22395 8.1954 5.29895C8.2084 5.37096 8.2454 5.40796 8.3184 5.42296C8.55141 5.47296 8.78041 5.53796 8.97541 5.68796C9.03341 5.58596 9.03342 5.58596 9.14342 5.53696C9.17342 5.52296 9.20342 5.50696 9.23542 5.49496C9.31542 5.46496 9.35042 5.47796 9.38542 5.55496C9.40842 5.60296 9.42642 5.65296 9.45142 5.71296C9.51142 5.57296 9.40942 5.44596 9.46842 5.29695C9.62542 5.47696 9.70843 5.68696 9.84343 5.86396C9.85774 5.83326 9.86524 5.79983 9.86543 5.76596C9.86743 5.64196 9.86543 5.51896 9.86743 5.39496C9.86743 5.36096 9.88043 5.32796 9.88743 5.29495L9.91943 5.29195C10.0294 5.44696 10.0494 5.64596 10.1454 5.81196C10.1505 5.68121 10.1472 5.55027 10.1354 5.41996C10.1314 5.37496 10.1354 5.34596 10.1854 5.33195C10.2654 5.36796 10.3014 5.47196 10.4004 5.48996C10.3704 5.21495 9.97743 4.35294 9.60242 3.85493C9.48842 3.72793 9.40242 3.57493 9.26242 3.46893L9.26142 3.46993ZM6.59438 4.16594C6.57538 4.19994 6.56438 4.21594 6.55738 4.23294C6.49638 4.41794 6.43238 4.60294 6.37737 4.78895C6.34637 4.89395 6.29037 4.95795 6.18237 4.97895C6.09237 4.99795 6.00437 5.03095 5.91437 5.05195C5.87637 5.06095 5.82537 5.06695 5.79637 5.04895C5.77237 5.03295 5.77137 4.97995 5.76036 4.94295C5.69636 5.01895 5.67836 5.02995 5.59036 4.98995C5.45736 4.92795 5.32836 4.85495 5.19736 4.78895C5.14936 4.76395 5.10436 4.72595 5.02735 4.75895C4.98435 4.87895 4.93635 5.00895 4.89035 5.14095C4.79135 5.42096 4.80335 5.38296 4.98535 5.59396C5.03135 5.64196 5.08735 5.62396 5.13936 5.61696C5.19336 5.60796 5.24536 5.58696 5.29936 5.58096C5.42936 5.56796 5.55936 5.50096 5.66636 5.56596C5.87037 5.50196 6.05337 5.44396 6.23737 5.38796C6.28737 5.37296 6.32637 5.39296 6.35137 5.44196C6.37337 5.48396 6.38537 5.53496 6.43338 5.56296C6.47138 5.50696 6.42038 5.43496 6.49638 5.38496L6.63638 5.62596L6.59438 4.16594ZM6.87238 4.52394C6.77638 4.51394 6.76538 4.53394 6.76238 4.63194C6.76038 4.66994 6.75938 4.70995 6.76438 4.74695C6.79438 4.94695 6.86338 5.13295 6.93838 5.31695C6.94038 5.32295 6.95038 5.32695 6.96038 5.33195L7.03838 5.28195C7.09039 5.31795 7.11939 5.36996 7.19139 5.36996C7.39639 5.36796 7.60139 5.38396 7.8074 5.38196C7.9064 5.38096 7.9654 5.42396 8.0124 5.50196C8.0304 5.53196 8.0364 5.57896 8.1004 5.56796L8.0204 5.17395C7.9704 4.97895 7.9354 4.77895 7.8484 4.58494C7.7914 4.64194 7.7344 4.65294 7.66839 4.63094C7.62439 4.61731 7.57919 4.60794 7.53339 4.60294C7.31339 4.57494 7.09339 4.54394 6.87338 4.52294L6.87238 4.52394ZM17.1265 2.79692C17.2155 2.95992 17.2815 3.11292 17.2655 3.28792C17.2495 3.45593 17.2915 3.62993 17.2215 3.80393C17.1745 3.77093 17.1335 3.72193 17.1095 3.72893C16.9925 3.76393 16.9455 3.67193 16.8825 3.61393C16.7831 3.52138 16.6877 3.42462 16.5965 3.32392L16.4925 3.21092C16.4849 3.21728 16.4772 3.22361 16.4695 3.22992C16.5045 3.27592 16.5395 3.32292 16.5795 3.38593C16.6195 3.44993 16.6635 3.51293 16.7015 3.57893C16.7355 3.63693 16.7665 3.69693 16.7325 3.78393C16.6505 3.77393 16.5685 3.76493 16.4865 3.75193C16.4265 3.74193 16.3855 3.75193 16.3625 3.82193C16.3315 3.91993 16.3255 3.91793 16.2125 3.91193C16.2325 3.95393 16.2485 3.99193 16.2695 4.02793C16.3105 4.10194 16.2995 4.16594 16.2395 4.22394C16.1795 4.28394 16.1215 4.34594 16.0615 4.40494C16.0384 4.42967 16.0087 4.44718 15.9758 4.45534C15.943 4.46351 15.9085 4.46198 15.8765 4.45094C15.6545 4.38994 15.4295 4.33794 15.2065 4.27694C15.1745 4.26794 15.1435 4.23694 15.1205 4.20894C15.0905 4.16894 15.0685 4.12194 15.0405 4.07894C14.9965 4.00893 14.9505 3.94093 14.9045 3.87193C14.8894 3.90474 14.8845 3.94132 14.8905 3.97693C14.9025 4.10394 14.9205 4.22994 14.9255 4.35694C14.9305 4.45694 14.9015 4.47694 14.8045 4.46094C14.7005 4.44394 14.5985 4.42094 14.4945 4.40294C14.4305 4.39094 14.3635 4.37494 14.2925 4.43294L14.3735 4.64094C14.4635 4.64094 14.5395 4.63094 14.6105 4.64294C14.7865 4.67439 14.9473 4.76254 15.0685 4.89395C15.1465 4.97695 15.2225 5.06195 15.3095 5.15395L15.3275 5.14895C15.3235 5.14295 15.3195 5.13595 15.3175 5.10895C15.3315 5.05295 15.2555 4.99095 15.3355 4.93095C15.3665 4.96095 15.3995 4.98795 15.4235 5.02095C15.4815 5.09895 15.5345 5.17995 15.5925 5.27795L15.6815 5.41896L15.7055 5.40596C15.5631 5.09465 15.4208 4.78332 15.2785 4.47194C15.3335 4.47894 15.3615 4.47894 15.3865 4.48794C15.5795 4.55794 15.7715 4.62994 15.9635 4.70395C16.0375 4.73195 16.1105 4.76395 16.1825 4.79795C16.2445 4.82595 16.2945 4.81595 16.3395 4.76495C16.3895 4.70895 16.4415 4.65294 16.4935 4.59794C16.5435 4.54694 16.5885 4.55194 16.6255 4.61194C16.6415 4.63694 16.6515 4.66494 16.6655 4.69195C16.7365 4.82995 16.8085 4.96895 16.8825 5.12495L17.0415 5.43296L17.0665 5.42196C17.0225 5.31595 16.9965 5.20395 16.9285 5.08795C16.8715 4.90595 16.7605 4.74195 16.7225 4.54294C16.8585 4.57694 17.0845 4.86895 17.2895 5.27495L17.3465 5.34896L17.3645 5.33796C17.3454 5.2964 17.328 5.25403 17.3125 5.21095C17.2665 5.06595 17.2155 4.92095 17.1765 4.77495C17.1545 4.69195 17.1405 4.60194 17.1985 4.51494L17.3075 4.57294L17.2815 4.36594L17.3085 4.34994C17.3305 4.36994 17.3585 4.38594 17.3735 4.40994C17.4465 4.51794 17.5165 4.62994 17.5885 4.73995C17.5985 4.75595 17.6175 4.76895 17.6315 4.78295C17.5955 4.56594 17.4315 4.40294 17.4025 4.15694L17.5575 4.26894C17.5715 4.10294 17.5695 3.94993 17.5995 3.80393C17.6315 3.64593 17.5765 3.50693 17.5365 3.35892C17.5605 3.36292 17.5725 3.36492 17.5915 3.38393C17.6836 3.50793 17.7745 3.63293 17.8686 3.75493C17.8886 3.78193 17.9186 3.80193 17.9376 3.84193L17.9776 3.90493L17.9966 3.88993C17.9744 3.86576 17.9565 3.83804 17.9436 3.80793C17.8312 3.64577 17.7205 3.48243 17.6115 3.31792C17.3905 3.00692 17.2485 2.85092 17.1265 2.79692ZM10.5564 3.12392C10.5534 3.28492 10.6484 3.39893 10.6254 3.53893L10.2574 3.62593C10.3474 3.76493 10.2894 3.86293 10.2054 3.95693C10.1554 4.01393 10.1134 4.07894 10.0624 4.13494C10.0254 4.17494 10.0164 4.21294 10.0444 4.26094L10.2044 4.53594C10.2334 4.58394 10.2764 4.60194 10.3324 4.59994C10.4084 4.59694 10.4844 4.59994 10.5604 4.59894C10.6764 4.59594 10.7764 4.62094 10.8354 4.73595C10.8414 4.74995 10.8554 4.75995 10.8794 4.78795C10.8834 4.72895 10.8764 4.68995 10.8894 4.65794C10.9054 4.61794 10.9294 4.55894 10.9614 4.54994C11.0454 4.52694 11.1344 4.52594 11.2214 4.51994C11.2344 4.51894 11.2484 4.53794 11.2614 4.54894L11.3325 4.61394C11.3515 4.50394 11.2504 4.41594 11.3085 4.30394L11.4345 4.34394C11.4085 4.22094 11.3645 4.09894 11.3635 3.97793C11.3635 3.85493 11.4145 3.73493 11.4785 3.61793C11.5855 3.67993 11.6385 3.77393 11.7125 3.87093C11.8955 4.13594 12.0725 4.40394 12.2065 4.70495C12.3715 4.62694 12.4765 4.77295 12.6135 4.79295C12.6105 4.68695 12.4805 4.35194 12.4165 4.30094C12.3873 4.27882 12.3508 4.26879 12.3145 4.27294C12.2545 4.28394 12.1955 4.31194 12.1235 4.33594C12.0985 4.29694 12.0675 4.25794 12.0465 4.21394C11.9198 3.93544 11.761 3.67266 11.5735 3.43093C11.4975 3.33692 11.4135 3.24892 11.3455 3.17092L10.9544 3.45593C10.9054 3.49093 10.8604 3.48593 10.8224 3.43893L10.6534 3.23192C10.6284 3.20192 10.6004 3.17292 10.5564 3.12392Z" fill="white"/>
<path fill-rule="evenodd" clip-rule="evenodd" d="M77.1636 4.1733C76.7336 3.0513 76.3116 1.8873 75.6236 0.957299C75.2296 0.422298 74.5436 0.188298 74.0166 0.644298C73.2906 1.2713 73.7986 2.4443 74.2786 3.0933C75.6726 4.9733 77.7186 6.2313 77.6016 8.6923C77.5396 9.9763 76.4216 10.7143 75.2486 10.8333C74.1286 10.9463 73.0946 10.6713 72.1486 10.0073C72.1117 9.98137 72.0816 9.94693 72.0609 9.90688C72.0401 9.86684 72.0294 9.82238 72.0296 9.7773C72.0306 7.9013 72.0336 6.7963 72.0376 6.4633C72.0376 6.4243 72.0436 6.3933 72.0576 6.3703C72.0687 6.35106 72.0851 6.33542 72.1048 6.32525C72.1246 6.31507 72.1469 6.31078 72.169 6.31288C72.1911 6.31499 72.2121 6.32341 72.2296 6.33713C72.2471 6.35085 72.2603 6.36931 72.2676 6.3903C72.5056 7.0973 72.7236 7.7153 72.9216 8.2463C73.2526 9.1363 73.8666 10.6393 75.0856 10.4303C75.7896 10.3103 76.0136 9.6943 75.9506 9.0443C75.7846 7.3203 74.1746 6.1443 73.1466 4.9783C72.6746 4.4443 72.1896 3.7363 72.0566 3.0293C71.9666 2.5513 71.9676 2.1443 72.0606 1.8093C72.3906 0.616299 73.5996 0.00729852 74.8106 0.000298524C75.7076 -0.0107304 76.5816 0.28413 77.2886 0.836299C77.3286 0.866299 77.3586 0.911299 77.3686 0.961299C77.3986 1.0863 77.4066 1.2543 77.3936 1.4663C77.3536 2.0863 77.3406 2.9283 77.3536 3.9913C77.3538 4.05142 77.3443 4.11118 77.3256 4.1683C77.3216 4.18109 77.3147 4.19278 77.3054 4.20244C77.2961 4.21209 77.2847 4.21945 77.2721 4.22392C77.2595 4.22838 77.246 4.22984 77.2327 4.22817C77.2194 4.2265 77.2067 4.22175 77.1956 4.2143C77.1809 4.20426 77.1697 4.18994 77.1636 4.1733ZM32.5826 4.7033C32.9746 4.7033 33.4336 4.7033 33.9626 4.7013C33.9727 4.70106 33.9823 4.69701 33.9895 4.68996C33.9968 4.68291 34.0011 4.67339 34.0016 4.6633C34.0216 3.6133 34.0066 2.6473 33.9546 1.7633C33.9056 0.928299 33.7216 0.611299 32.9386 0.388299C32.8686 0.368299 32.8336 0.316299 32.8286 0.242299C32.8276 0.229162 32.8294 0.215968 32.8338 0.203552C32.8382 0.191137 32.8451 0.179772 32.8541 0.170181C32.8631 0.160589 32.8741 0.152979 32.8862 0.147835C32.8983 0.14269 32.9114 0.140124 32.9246 0.140299L37.0516 0.141299C37.0716 0.141299 37.0896 0.147299 37.1056 0.158299C37.1216 0.168299 37.1336 0.183299 37.1406 0.201299C37.1493 0.220654 37.1533 0.24181 37.1523 0.263022C37.1512 0.284234 37.1452 0.304894 37.1346 0.323299C37.1186 0.350299 37.0846 0.371299 37.0316 0.388299C36.8863 0.430658 36.7435 0.480729 36.6036 0.538298C35.9916 0.838298 35.9906 1.8103 35.9876 2.3913C35.9776 4.0413 35.9746 5.8783 35.9786 7.9033C35.9806 8.5703 36.0136 9.1143 36.0796 9.5353C36.1546 10.0153 36.4156 10.2883 36.8656 10.4153C36.9573 10.4368 37.0452 10.4718 37.1266 10.5193C37.1378 10.5275 37.1471 10.5383 37.1535 10.5507C37.1599 10.5631 37.1634 10.5768 37.1636 10.5908C37.1638 10.6048 37.1607 10.6186 37.1546 10.6312C37.1485 10.6438 37.1396 10.6548 37.1286 10.6633C37.1135 10.6746 37.0953 10.6809 37.0766 10.6813C34.7226 10.6823 33.3426 10.6833 32.9366 10.6813C32.9174 10.6818 32.8983 10.6784 32.8806 10.6713C32.8621 10.662 32.8468 10.6473 32.8368 10.6292C32.8267 10.611 32.8224 10.5903 32.8244 10.5697C32.8263 10.549 32.8344 10.5295 32.8477 10.5135C32.8609 10.4976 32.8786 10.486 32.8986 10.4803C33.2636 10.3723 33.5646 10.2863 33.7476 9.9673C33.8656 9.7593 33.9326 9.5013 33.9476 9.1913C34.0174 7.84414 34.0331 6.49472 33.9946 5.1463C33.9942 5.13873 33.991 5.13159 33.9856 5.1263C33.9803 5.12168 33.9735 5.11918 33.9666 5.1193C33.5052 5.11335 33.0439 5.11102 32.5826 5.1123C31.8726 5.1123 31.4116 5.1143 31.1996 5.1193C31.1922 5.11892 31.185 5.12144 31.1796 5.1263C31.1741 5.13159 31.1709 5.13873 31.1706 5.1463C31.132 6.49472 31.1477 7.84414 31.2176 9.1913C31.2336 9.5013 31.3006 9.7593 31.4186 9.9673C31.6016 10.2873 31.9026 10.3723 32.2686 10.4803C32.2881 10.4863 32.3055 10.498 32.3183 10.5139C32.3312 10.5298 32.3391 10.5492 32.3409 10.5696C32.3427 10.59 32.3384 10.6104 32.3286 10.6284C32.3187 10.6463 32.3037 10.6609 32.2856 10.6703C32.2676 10.6783 32.2482 10.6823 32.2286 10.6823L28.0886 10.6813C28.07 10.6805 28.0522 10.674 28.0375 10.6626C28.0228 10.6513 28.0119 10.6357 28.0064 10.6179C28.001 10.6002 28.0011 10.5812 28.0069 10.5635C28.0126 10.5459 28.0237 10.5304 28.0386 10.5193C28.1201 10.4714 28.2085 10.436 28.3006 10.4143C28.7506 10.2883 29.0106 10.0143 29.0866 9.5353C29.1516 9.1143 29.1866 8.5703 29.1866 7.9033C29.1916 5.8783 29.1886 4.0413 29.1786 2.3913C29.1756 1.8103 29.1746 0.838298 28.5616 0.538298C28.4213 0.480694 28.2781 0.430622 28.1326 0.388299C28.0816 0.371299 28.0466 0.350299 28.0316 0.323299C28.0208 0.30477 28.0146 0.28393 28.0136 0.262529C28.0125 0.241127 28.0166 0.219787 28.0256 0.200299C28.0326 0.182772 28.0448 0.167787 28.0606 0.157299C28.0765 0.146388 28.0953 0.14047 28.1146 0.140299H32.2416C32.2546 0.140281 32.2675 0.142919 32.2795 0.148054C32.2915 0.153188 32.3023 0.16071 32.3113 0.17016C32.3202 0.179611 32.3272 0.190793 32.3317 0.203024C32.3363 0.215254 32.3382 0.228277 32.3376 0.241299C32.3316 0.315299 32.2976 0.367299 32.2276 0.387299C31.4446 0.610299 31.2606 0.927298 31.2116 1.7623C31.1586 2.6463 31.1436 3.6123 31.1646 4.6623C31.1651 4.67239 31.1694 4.68191 31.1766 4.68896C31.1838 4.69601 31.1935 4.70006 31.2036 4.7003C31.7316 4.7023 32.1916 4.7023 32.5836 4.7023L32.5826 4.7033ZM60.1346 1.3203C60.1303 1.31442 60.1245 1.30981 60.1178 1.30698C60.1111 1.30415 60.1037 1.30319 60.0965 1.30422C60.0893 1.30525 60.0826 1.30822 60.0769 1.31282C60.0713 1.31741 60.067 1.32345 60.0646 1.3303C59.2593 4.38836 58.4577 7.44736 57.6596 10.5073C57.6512 10.5581 57.6321 10.6065 57.6036 10.6493C57.5904 10.6633 57.5738 10.6736 57.5554 10.6791C57.537 10.6845 57.5175 10.685 57.4989 10.6804C57.4802 10.6758 57.4631 10.6664 57.4494 10.653C57.4356 10.6396 57.4257 10.6228 57.4206 10.6043L54.8746 1.4143C54.8717 1.40631 54.8661 1.39957 54.8588 1.3952C54.8515 1.39083 54.843 1.3891 54.8346 1.3903C54.8263 1.39163 54.8188 1.39572 54.8131 1.40189C54.8075 1.40807 54.8041 1.41596 54.8036 1.4243C54.8106 3.4603 54.8136 5.0313 54.8106 6.1373C54.8096 6.9923 54.8596 7.7593 54.9606 8.4413C55.0746 9.2263 55.2846 9.9873 55.9346 10.5053C55.9531 10.5203 55.9653 10.5418 55.9684 10.5654C55.9716 10.589 55.9655 10.613 55.9516 10.6323C55.9423 10.6452 55.9299 10.6555 55.9156 10.6623C55.8845 10.6748 55.8511 10.6806 55.8176 10.6793C54.6106 10.6843 53.7796 10.6843 53.3266 10.6773C53.3083 10.6786 53.29 10.6752 53.2736 10.6673C53.2487 10.6532 53.2302 10.6301 53.2219 10.6027C53.2135 10.5754 53.2159 10.5459 53.2286 10.5203C53.2371 10.5031 53.2498 10.4883 53.2656 10.4773C53.8596 10.0633 54.0786 9.4933 54.1996 8.8143C54.3053 8.18047 54.3701 7.54047 54.3936 6.8983C54.3956 6.8563 54.4036 5.5783 54.4196 3.0663C54.4221 2.50096 54.384 1.93617 54.3056 1.3763C54.2626 1.0673 54.1466 0.824299 53.9586 0.646299C53.7986 0.496299 53.2816 0.417299 53.2276 0.296299C53.2199 0.279781 53.2165 0.261583 53.2177 0.243398C53.2189 0.225214 53.2247 0.207635 53.2346 0.192299C53.2443 0.17699 53.2577 0.164384 53.2737 0.155645C53.2896 0.146906 53.3074 0.142316 53.3256 0.142299L56.5476 0.140299C56.5811 0.140279 56.6137 0.151351 56.6403 0.171789C56.6669 0.192228 56.686 0.220885 56.6946 0.253299C57.6446 3.7503 58.1726 5.6983 58.2796 6.0953C58.2896 6.1323 58.3036 6.1573 58.3216 6.1713C58.3288 6.17727 58.338 6.18019 58.3474 6.17944C58.3567 6.17869 58.3654 6.17434 58.3716 6.1673C58.3755 6.16272 58.3783 6.15722 58.3796 6.1513L59.9336 0.233299C59.9404 0.206958 59.9558 0.183637 59.9774 0.166988C59.9989 0.15034 60.0253 0.141305 60.0526 0.141299C61.7616 0.140299 62.8016 0.140299 63.1756 0.144299C63.1929 0.144407 63.2101 0.148003 63.2261 0.154874C63.2421 0.161744 63.2565 0.17175 63.2686 0.184299C63.2816 0.199299 63.2916 0.215299 63.2966 0.234299C63.3018 0.252075 63.3024 0.270915 63.2982 0.288971C63.294 0.307027 63.2851 0.323681 63.2726 0.337299C63.26 0.350546 63.2441 0.36021 63.2266 0.365299C62.6836 0.525299 62.3006 0.658298 62.2076 1.3053C62.1416 1.7753 62.1076 2.2893 62.1056 2.8493C62.0996 4.7583 62.1016 6.6603 62.1106 8.5563C62.1146 9.0563 62.1486 9.7443 62.4666 10.1183C62.6436 10.3253 62.9066 10.3923 63.2176 10.4913C63.2403 10.4989 63.2592 10.515 63.2702 10.5363C63.2812 10.5576 63.2835 10.5824 63.2766 10.6053C63.2718 10.6203 63.2631 10.6337 63.2516 10.6443C63.2106 10.6813 63.1456 10.6943 63.0576 10.6843L62.9236 10.6833C61.6156 10.6833 60.3226 10.6813 59.0426 10.6803C59.0236 10.6804 59.0052 10.6738 58.9906 10.6618C58.976 10.6497 58.9661 10.6329 58.9626 10.6143C58.9597 10.6021 58.9597 10.5895 58.9626 10.5773L58.9746 10.5373C58.9799 10.5176 58.9908 10.4999 59.0061 10.4864C59.0214 10.4728 59.0403 10.4641 59.0606 10.4613C59.6826 10.3713 60.0176 9.9613 60.0656 9.2353C60.1156 8.4923 60.1406 7.9753 60.1426 7.6863C60.1526 5.6763 60.1526 3.5663 60.1416 1.3543C60.1416 1.3383 60.1396 1.3263 60.1346 1.3203ZM66.9176 10.1883C66.9176 10.2038 66.9223 10.2189 66.9311 10.2318C66.9398 10.2446 66.9522 10.2545 66.9666 10.2603C66.9756 10.2643 66.9866 10.2663 66.9966 10.2653C68.9296 10.2553 69.8266 7.8933 70.3186 6.3833C70.3236 6.36751 70.3323 6.35314 70.344 6.34133C70.3556 6.32952 70.3698 6.3206 70.3856 6.3153C70.4011 6.31022 70.4177 6.30893 70.4339 6.31154C70.45 6.31415 70.4654 6.32058 70.4786 6.3303C70.5166 6.3593 70.5356 6.4133 70.5356 6.4923C70.5306 6.9443 70.5286 8.3073 70.5306 10.5823C70.5307 10.5953 70.5282 10.6083 70.5233 10.6203C70.5184 10.6324 70.5111 10.6434 70.5019 10.6526C70.4926 10.6618 70.4817 10.6691 70.4696 10.674C70.4575 10.679 70.4446 10.6814 70.4316 10.6813H63.8896C63.8623 10.6823 63.8353 10.6757 63.8116 10.6623C63.7956 10.6523 63.7829 10.6379 63.7749 10.6209C63.767 10.6039 63.7641 10.5849 63.7666 10.5663C63.7691 10.5477 63.7771 10.5302 63.7896 10.5162C63.802 10.5021 63.8184 10.4921 63.8366 10.4873C64.5476 10.2903 64.8026 10.0713 64.8866 9.2873C64.9396 8.7873 64.9656 8.3253 64.9636 7.9043C64.9562 6.27364 64.9558 4.64296 64.9626 3.0123C64.9646 2.3693 64.9216 1.7823 64.8326 1.2503C64.7306 0.636298 64.3276 0.525299 63.8256 0.358299C63.7976 0.348299 63.7806 0.324299 63.7756 0.283299C63.7729 0.26676 63.774 0.249849 63.7785 0.233747C63.7831 0.217644 63.7912 0.202739 63.8021 0.190072C63.8131 0.177406 63.8267 0.167284 63.842 0.160414C63.8572 0.153544 63.8738 0.150092 63.8906 0.150299H70.4216C70.4491 0.150299 70.4756 0.161256 70.4951 0.180759C70.5146 0.200263 70.5256 0.226716 70.5256 0.254299C70.5306 1.7123 70.5856 3.7153 70.4956 3.8333C70.4839 3.84892 70.4683 3.86107 70.4503 3.86845C70.4322 3.87582 70.4125 3.87814 70.3933 3.87516C70.3741 3.87218 70.356 3.864 70.3411 3.85151C70.3261 3.83903 70.3149 3.8227 70.3086 3.8043C69.7426 2.2823 68.8766 0.544298 66.9836 0.570298C66.966 0.570561 66.9492 0.577736 66.9368 0.590272C66.9245 0.602809 66.9176 0.619701 66.9176 0.637299V4.8533C66.9176 4.8723 66.9246 4.8903 66.9376 4.9033C66.9496 4.9173 66.9676 4.9263 66.9846 4.9273C68.1776 5.0233 68.5546 3.6573 68.8926 2.7963C68.899 2.78044 68.9097 2.76666 68.9235 2.75643C68.9372 2.74621 68.9535 2.73994 68.9706 2.7383C68.9875 2.73666 69.0046 2.73971 69.0199 2.74712C69.0353 2.75452 69.0483 2.766 69.0576 2.7803C69.0776 2.8133 69.0876 2.8473 69.0876 2.8823C69.0876 5.7153 69.0886 7.1623 69.0896 7.2253C69.0896 7.3613 69.0796 7.4523 69.0626 7.4973C69.056 7.514 69.0445 7.52835 69.0297 7.53849C69.0149 7.54863 68.9973 7.55411 68.9794 7.55422C68.9614 7.55433 68.9438 7.54906 68.9289 7.53909C68.914 7.52913 68.9024 7.51492 68.8956 7.4983C68.5356 6.6153 68.1616 5.2783 66.9896 5.3623C66.9701 5.36332 66.9518 5.37178 66.9384 5.38592C66.925 5.40007 66.9175 5.41882 66.9176 5.4383V10.1893V10.1883ZM40.7916 10.1903C40.7913 10.2006 40.7932 10.2109 40.7969 10.2205C40.8007 10.2301 40.8064 10.2389 40.8136 10.2463C40.821 10.2535 40.8297 10.2591 40.8393 10.2629C40.849 10.2667 40.8592 10.2685 40.8696 10.2683C42.8026 10.2573 43.7016 7.8953 44.1936 6.3853C44.1985 6.36962 44.2071 6.35531 44.2185 6.34351C44.23 6.33171 44.244 6.32274 44.2596 6.3173C44.2751 6.31222 44.2917 6.31094 44.3079 6.31354C44.324 6.31615 44.3394 6.32258 44.3526 6.3323C44.3916 6.3613 44.4106 6.4153 44.4096 6.4943C44.4046 6.9463 44.4026 8.3093 44.4036 10.5843C44.4036 10.6104 44.3933 10.6354 44.3749 10.654C44.3566 10.6725 44.3316 10.683 44.3056 10.6833L37.7626 10.6823C37.7356 10.6831 37.709 10.6766 37.6856 10.6633C37.6695 10.6534 37.6565 10.6391 37.6484 10.6221C37.6402 10.6051 37.6372 10.586 37.6396 10.5673C37.6422 10.5487 37.6503 10.5314 37.6627 10.5173C37.6752 10.5033 37.6914 10.4932 37.7096 10.4883C38.4216 10.2913 38.6766 10.0723 38.7596 9.2883C38.8146 8.7883 38.8396 8.3263 38.8376 7.9053C38.8303 6.27464 38.8303 4.64396 38.8376 3.0133C38.8396 2.3703 38.7976 1.7833 38.7076 1.2513C38.6076 0.637299 38.2036 0.526299 37.7016 0.359299C37.6746 0.350299 37.6576 0.325299 37.6516 0.284299C37.6489 0.267765 37.6499 0.250844 37.6546 0.23476C37.6593 0.218675 37.6674 0.20383 37.6786 0.191299C37.6895 0.178747 37.7031 0.168684 37.7182 0.161786C37.7334 0.154887 37.7499 0.151311 37.7666 0.151299C41.6766 0.151299 43.8536 0.151299 44.2976 0.153299C44.3112 0.153429 44.3247 0.156249 44.3373 0.161596C44.3498 0.166944 44.3612 0.174715 44.3708 0.184465C44.3804 0.194215 44.3879 0.205754 44.393 0.218423C44.3981 0.231091 44.4007 0.244641 44.4006 0.258299C44.4066 1.7153 44.4616 3.7183 44.3706 3.8353C44.3589 3.85067 44.3434 3.86263 44.3256 3.86991C44.3077 3.87719 44.2883 3.87951 44.2692 3.87665C44.2502 3.87378 44.2323 3.86582 44.2174 3.85362C44.2024 3.84141 44.1911 3.82541 44.1846 3.8073C43.6186 2.2843 42.7516 0.546298 40.8606 0.570298C40.8517 0.570166 40.8429 0.571801 40.8346 0.575109C40.8264 0.578416 40.8189 0.583331 40.8125 0.589565C40.8062 0.5958 40.8012 0.603231 40.7977 0.611426C40.7943 0.61962 40.7926 0.628415 40.7926 0.637299V4.8543C40.7926 4.8723 40.7996 4.8903 40.8126 4.9043C40.8246 4.9183 40.8426 4.9263 40.8606 4.9273C42.0526 5.0233 42.4306 3.6573 42.7686 2.7963C42.7749 2.78038 42.7856 2.76653 42.7994 2.7563C42.8131 2.74606 42.8295 2.73983 42.8466 2.7383C42.8636 2.73676 42.8808 2.73996 42.8961 2.74755C42.9115 2.75514 42.9244 2.76682 42.9336 2.7813C42.9536 2.8133 42.9636 2.8473 42.9636 2.8813V7.2253C42.969 7.31682 42.9598 7.40862 42.9366 7.4973C42.9298 7.5137 42.9183 7.52773 42.9036 7.53764C42.8889 7.54755 42.8716 7.5529 42.8539 7.553C42.8362 7.55311 42.8188 7.54797 42.804 7.53824C42.7891 7.52851 42.7775 7.51461 42.7706 7.4983C42.4096 6.6163 42.0356 5.2783 40.8636 5.3623C40.8441 5.36332 40.8258 5.37178 40.8124 5.38592C40.799 5.40007 40.7915 5.41882 40.7916 5.4383V10.1903ZM49.6876 5.2633C49.6786 5.26514 49.6705 5.27002 49.6646 5.27712C49.6588 5.28422 49.6556 5.29311 49.6556 5.3023C49.6556 5.3123 49.6586 5.3203 49.6646 5.3273C49.6705 5.33411 49.6786 5.3387 49.6876 5.3403L52.0276 5.6063C52.0535 5.60922 52.0774 5.6215 52.0949 5.64084C52.1124 5.66017 52.1222 5.68523 52.1226 5.7113C52.1211 7.42963 52.1211 9.14797 52.1226 10.8663C52.1226 10.9563 52.1066 11.0253 52.0736 11.0713C52.0654 11.0825 52.0545 11.0913 52.0418 11.0969C52.0292 11.1025 52.0153 11.1047 52.0016 11.1033C51.9877 11.1018 51.9745 11.0967 51.9632 11.0884C51.952 11.0802 51.9431 11.0691 51.9376 11.0563C51.5246 10.0453 51.0906 8.9923 50.6346 7.8973C50.3707 7.2575 50.0487 6.64326 49.6726 6.0623C49.4597 5.72594 49.135 5.47555 48.7556 5.3553C48.7439 5.35125 48.7315 5.35005 48.7193 5.35179C48.7072 5.35353 48.6956 5.35816 48.6856 5.3653C48.6757 5.37244 48.6676 5.38174 48.6619 5.39248C48.6562 5.40323 48.653 5.41513 48.6526 5.4273C48.6199 6.6768 48.6366 7.92711 48.7026 9.1753C48.7196 9.4883 48.7866 9.7463 48.9026 9.9503C49.0956 10.2903 49.3686 10.3513 49.7776 10.4903C49.7933 10.4957 49.8073 10.5054 49.8179 10.5183C49.8285 10.5312 49.8353 10.5468 49.8376 10.5633C49.8396 10.58 49.8368 10.597 49.8295 10.6122C49.8223 10.6275 49.8108 10.6403 49.7966 10.6493C49.7706 10.6672 49.7401 10.6776 49.7086 10.6793C49.1586 10.6853 47.7806 10.6853 45.5766 10.6793C45.5549 10.6782 45.5344 10.6697 45.5183 10.6552C45.5022 10.6407 45.4917 10.6211 45.4884 10.5997C45.4851 10.5783 45.4893 10.5565 45.5002 10.5378C45.5112 10.5191 45.5283 10.5048 45.5486 10.4973C46.0926 10.3223 46.5046 10.1613 46.5846 9.5063C46.6536 8.9393 46.6876 8.4323 46.6876 7.9853V2.7673C46.6876 2.2673 46.6446 1.7583 46.5576 1.2413C46.4566 0.641299 46.0816 0.546299 45.5806 0.370299C45.5356 0.354299 45.5086 0.327299 45.5006 0.288299C45.4966 0.272162 45.4965 0.255318 45.5004 0.239151C45.5042 0.222983 45.5118 0.207954 45.5226 0.195299C45.5335 0.182017 45.5472 0.17135 45.5628 0.164082C45.5784 0.156814 45.5954 0.153129 45.6126 0.153299C47.3296 0.147299 48.4306 0.147299 48.9126 0.153299C50.4456 0.173299 52.4906 0.880298 52.4546 2.7813C52.4256 4.3023 51.0426 5.1283 49.6876 5.2633ZM48.6436 0.400299V5.1263C48.6436 5.1303 48.6446 5.1343 48.6476 5.1363C48.6489 5.13759 48.6504 5.13861 48.6522 5.1393C48.6539 5.13998 48.6557 5.14032 48.6576 5.1403H48.6626C48.8916 5.1403 49.1176 5.0843 49.3286 4.9763C49.5386 4.8673 49.7316 4.7083 49.8926 4.5073C50.0546 4.3073 50.1826 4.0683 50.2696 3.8063C50.3566 3.5433 50.4026 3.2623 50.4026 2.9783V2.5483C50.4026 1.9753 50.2186 1.4253 49.8926 1.0193C49.5666 0.614299 49.1246 0.386299 48.6626 0.386299H48.6576C48.6557 0.386272 48.6539 0.386612 48.6522 0.387298C48.6504 0.387985 48.6489 0.389005 48.6476 0.390299C48.6463 0.391619 48.6452 0.393182 48.6446 0.394898C48.6439 0.396615 48.6435 0.39845 48.6436 0.400299ZM38.5916 18.5033C38.585 18.4879 38.5826 18.471 38.5846 18.4543C38.5866 18.4377 38.5928 18.4219 38.6026 18.4083C38.6128 18.3941 38.6263 18.3825 38.642 18.3747C38.6577 18.3668 38.675 18.3629 38.6926 18.3633C39.6945 18.3541 40.6966 18.3524 41.6986 18.3583C41.726 18.3586 41.7522 18.3696 41.7714 18.3891C41.7907 18.4086 41.8016 18.4349 41.8016 18.4623V23.1123C41.8015 23.1403 41.7943 23.1679 41.7807 23.1924C41.767 23.2169 41.7474 23.2375 41.7236 23.2523C40.8136 23.7983 39.8236 24.0453 38.7536 23.9933C37.7516 23.9433 36.9596 23.5293 36.3776 22.7483C35.3886 21.4223 35.1936 19.6623 35.2676 17.9063C35.3506 15.9613 36.2036 13.3973 38.4926 13.1633C39.6116 13.0503 40.6776 13.2733 41.5726 14.0463C41.5894 14.0606 41.6026 14.0786 41.6111 14.0989C41.6196 14.1193 41.6232 14.1413 41.6216 14.1633L41.6096 17.3863C41.6073 17.4244 41.5917 17.4605 41.5656 17.4883C41.5508 17.5056 41.5298 17.5164 41.5071 17.5183C41.4844 17.5202 41.4619 17.513 41.4446 17.4983C41.4332 17.4881 41.4249 17.4749 41.4206 17.4603C41.1945 16.8187 40.9534 16.1826 40.6976 15.5523C40.4446 14.9223 40.0626 14.1103 39.4996 13.7173C38.5336 13.0433 37.8616 14.3343 37.6716 15.0583C37.5267 15.5908 37.428 16.1348 37.3766 16.6843C37.2766 17.8743 37.2786 19.0203 37.3816 20.1243C37.4986 21.3693 38.0736 24.5293 40.0386 23.3073C40.1246 23.2543 40.1686 23.1293 40.1686 22.9303C40.1766 21.5073 40.1716 20.5853 40.1526 20.1653C40.1086 19.1393 39.7096 18.7493 38.7146 18.5903C38.6899 18.5844 38.6668 18.5735 38.6466 18.5583C38.6225 18.5464 38.6029 18.5271 38.5906 18.5033H38.5916ZM28.6986 23.7453C28.7006 22.9423 28.6986 22.0903 28.6926 21.1913C28.6896 20.7033 28.7256 20.2953 28.8016 19.9673L30.0006 14.7773C30.0976 14.3573 30.1806 13.7163 29.6316 13.5833C29.5182 13.5523 29.4055 13.519 29.2936 13.4833C29.2764 13.4782 29.2609 13.4685 29.2488 13.4553C29.2367 13.4421 29.2284 13.4258 29.2249 13.4083C29.2213 13.3907 29.2225 13.3725 29.2284 13.3556C29.2344 13.3387 29.2448 13.3238 29.2586 13.3123C29.2769 13.2966 29.3004 13.2881 29.3246 13.2883H32.1316C32.1601 13.2883 32.1878 13.2979 32.2102 13.3155C32.2327 13.3331 32.2486 13.3576 32.2556 13.3853L34.7236 23.7303C34.7262 23.7419 34.7263 23.7541 34.7237 23.7657C34.7211 23.7774 34.7159 23.7883 34.7085 23.7977C34.7011 23.8071 34.6917 23.8148 34.681 23.82C34.6703 23.8253 34.6585 23.8282 34.6466 23.8283H30.6666C30.6498 23.8285 30.6336 23.8229 30.6205 23.8125C30.6074 23.8022 30.5982 23.7876 30.5946 23.7713L30.5866 23.7373C30.5839 23.727 30.5833 23.7162 30.5851 23.7057C30.5868 23.6952 30.5907 23.6852 30.5966 23.6763C30.6026 23.6671 30.6106 23.6594 30.6199 23.6535C30.6292 23.6477 30.6397 23.6438 30.6506 23.6423C30.9156 23.6003 31.2546 23.5743 31.4806 23.4843C32.5166 23.0663 32.1996 21.7983 31.9996 20.9313C31.9971 20.9191 31.9922 20.9075 31.9851 20.8973C31.978 20.8871 31.9688 20.8785 31.9582 20.872C31.9476 20.8655 31.9357 20.8613 31.9234 20.8597C31.9111 20.858 31.8985 20.8589 31.8866 20.8623C31.8705 20.8666 31.856 20.8753 31.8446 20.8873L28.9016 23.8303C28.885 23.847 28.8639 23.8585 28.8409 23.8631C28.8178 23.8677 28.7939 23.8654 28.7722 23.8564C28.7505 23.8474 28.732 23.8321 28.7191 23.8124C28.7061 23.7928 28.6993 23.7698 28.6996 23.7463L28.6986 23.7453ZM29.1246 20.4373C29.1219 20.4495 29.1235 20.4622 29.1289 20.4735C29.1343 20.4847 29.1434 20.4938 29.1546 20.4993C29.1621 20.5028 29.1703 20.5045 29.1786 20.5043L31.8366 20.4953C31.8448 20.4952 31.853 20.4933 31.8604 20.4896C31.8679 20.486 31.8744 20.4807 31.8795 20.4741C31.8846 20.4676 31.8881 20.46 31.8899 20.4519C31.8916 20.4438 31.8915 20.4354 31.8896 20.4273L30.5416 14.7663C30.5396 14.7569 30.5352 14.7482 30.5289 14.741C30.5226 14.7338 30.5145 14.7283 30.5055 14.7251C30.4965 14.7219 30.4868 14.721 30.4773 14.7226C30.4679 14.7243 30.459 14.7283 30.4516 14.7343C30.4418 14.7425 30.4351 14.7538 30.4326 14.7663L29.1246 20.4373ZM45.7156 23.3313C45.7155 23.3468 45.7202 23.362 45.7289 23.3749C45.7376 23.3877 45.7501 23.3976 45.7646 23.4033C45.7746 23.4073 45.7846 23.4083 45.7946 23.4083C47.7276 23.3983 48.6256 21.0363 49.1176 19.5283C49.1226 19.5127 49.1312 19.4984 49.1427 19.4867C49.1543 19.475 49.1684 19.4662 49.1839 19.461C49.1995 19.4557 49.2161 19.4542 49.2323 19.4565C49.2486 19.4588 49.2641 19.4649 49.2776 19.4743C49.3156 19.5043 49.3346 19.5573 49.3336 19.6363C49.3286 20.0893 49.3266 21.4523 49.3276 23.7263C49.3276 23.7457 49.3219 23.7646 49.3112 23.7808C49.3005 23.797 49.2854 23.8097 49.2676 23.8173C49.2555 23.8224 49.2426 23.8252 49.2296 23.8253C45.3076 23.8253 43.1266 23.8253 42.6876 23.8233C42.6607 23.8244 42.6341 23.8182 42.6106 23.8053C42.5945 23.7954 42.5815 23.7811 42.5734 23.7641C42.5652 23.7471 42.5622 23.728 42.5646 23.7093C42.5671 23.6907 42.5751 23.6732 42.5876 23.6592C42.6 23.6451 42.6164 23.6351 42.6346 23.6303C43.3466 23.4323 43.6006 23.2143 43.6846 22.4303C43.7386 21.9303 43.7646 21.4683 43.7626 21.0463C43.7552 19.4163 43.7552 17.7863 43.7626 16.1563C43.7646 15.5133 43.7226 14.9263 43.6326 14.3943C43.5306 13.7803 43.1286 13.6693 42.6266 13.5013C42.5996 13.4933 42.5826 13.4683 42.5766 13.4263C42.5729 13.4014 42.5774 13.376 42.5895 13.354C42.6016 13.332 42.6206 13.3145 42.6436 13.3043C42.6587 13.2976 42.675 13.2942 42.6916 13.2943H49.2226C49.2362 13.2944 49.2497 13.2972 49.2623 13.3026C49.2748 13.3079 49.2862 13.3157 49.2958 13.3255C49.3054 13.3352 49.3129 13.3468 49.318 13.3594C49.3231 13.3721 49.3257 13.3856 49.3256 13.3993C49.3306 14.8573 49.3856 16.8603 49.2946 16.9783C49.2829 16.9937 49.2673 17.0056 49.2494 17.0128C49.2315 17.02 49.212 17.0222 49.1929 17.0192C49.1739 17.0163 49.1559 17.0082 49.1411 16.9959C49.1263 16.9836 49.115 16.9675 49.1086 16.9493C48.5426 15.4263 47.6766 13.6893 45.7846 13.7133C45.7669 13.7138 45.7501 13.7212 45.7378 13.7339C45.7254 13.7466 45.7185 13.7636 45.7186 13.7813L45.7166 17.9963C45.7166 18.0153 45.7236 18.0333 45.7366 18.0463C45.7486 18.0603 45.7666 18.0693 45.7846 18.0703C46.9766 18.1663 47.3546 16.8023 47.6916 15.9403C47.6961 15.9281 47.7031 15.9171 47.7122 15.9078C47.7213 15.8985 47.7323 15.8913 47.7443 15.8866C47.7564 15.8819 47.7694 15.8798 47.7823 15.8804C47.7953 15.881 47.808 15.8844 47.8196 15.8903C47.8346 15.8983 47.8476 15.9103 47.8576 15.9243C47.8776 15.9573 47.8876 15.9913 47.8876 16.0253V20.3683C47.8876 20.5043 47.8786 20.5953 47.8606 20.6403C47.8537 20.6567 47.8422 20.6706 47.8274 20.6804C47.8126 20.6903 47.7953 20.6955 47.7776 20.6955C47.7598 20.6955 47.7425 20.6903 47.7277 20.6804C47.7129 20.6706 47.7014 20.6567 47.6946 20.6403C47.3346 19.7583 46.9606 18.4213 45.7886 18.5053C45.7692 18.5066 45.751 18.5151 45.7377 18.5292C45.7243 18.5433 45.7168 18.5619 45.7166 18.5813L45.7156 23.3313ZM52.0516 16.2923C52.0446 16.2891 52.0367 16.2887 52.0295 16.2911C52.0222 16.2935 52.0162 16.2986 52.0126 16.3053C52.0101 16.3096 52.0088 16.3144 52.0086 16.3193C52.0076 17.5953 52.0096 18.7853 52.0166 19.8913C52.0206 20.4673 52.0866 20.9933 52.1406 21.5033C52.2226 22.2753 52.4336 23.1983 53.1486 23.6353C53.1619 23.6431 53.173 23.6542 53.1809 23.6675C53.1888 23.6808 53.1931 23.6959 53.1936 23.7113C53.1942 23.7269 53.1909 23.7425 53.1839 23.7565C53.1769 23.7705 53.1665 23.7825 53.1536 23.7913C53.1043 23.8192 53.048 23.832 52.9916 23.8283C51.6016 23.8303 50.7866 23.8283 50.5476 23.8233C50.5077 23.8214 50.4698 23.8055 50.4406 23.7783C50.4312 23.7705 50.4238 23.7606 50.419 23.7493C50.4143 23.7381 50.4123 23.7259 50.4133 23.7137C50.4143 23.7015 50.4182 23.6898 50.4247 23.6795C50.4312 23.6691 50.44 23.6605 50.4506 23.6543C51.5526 22.9893 51.5656 21.2643 51.5866 20.1343C51.6249 18.5045 51.6229 16.874 51.5806 15.2443C51.5735 14.9109 51.5319 14.5791 51.4566 14.2543C51.3556 13.8243 50.9846 13.6323 50.5396 13.5293C50.5146 13.5233 50.4846 13.4963 50.4496 13.4463C50.4392 13.4312 50.4332 13.4136 50.4321 13.3954C50.431 13.3772 50.4349 13.359 50.4433 13.3428C50.4517 13.3266 50.4643 13.3129 50.4799 13.3033C50.4954 13.2937 50.5133 13.2885 50.5316 13.2883H52.4986C52.5331 13.2881 52.5671 13.2967 52.5974 13.3134C52.6277 13.33 52.6532 13.3541 52.6716 13.3833C53.9766 15.5026 55.2833 17.621 56.5916 19.7383C56.6126 19.7723 56.6416 19.7993 56.6796 19.8203C56.6868 19.8242 56.6949 19.8262 56.7031 19.8262C56.7113 19.8262 56.7193 19.8242 56.7266 19.8203C56.7336 19.8163 56.7395 19.8105 56.7436 19.8035C56.7476 19.7964 56.7497 19.7884 56.7496 19.7803C56.7506 18.2803 56.7406 17.1303 56.7206 16.3293C56.6946 15.2953 56.7266 14.0343 55.6366 13.5183C55.612 13.5065 55.5922 13.4867 55.5804 13.4622C55.5686 13.4377 55.5655 13.4098 55.5716 13.3833C55.5775 13.3567 55.5923 13.3328 55.6135 13.3158C55.6348 13.2987 55.6613 13.2893 55.6886 13.2893H58.1926C58.2193 13.2898 58.2451 13.2991 58.266 13.3157C58.2869 13.3323 58.3018 13.3553 58.3084 13.3812C58.315 13.4071 58.3129 13.4344 58.3025 13.459C58.292 13.4836 58.2738 13.5041 58.2506 13.5173C57.5776 13.8793 57.3806 14.4323 57.2576 15.1873C57.1896 15.6063 57.1516 16.3263 57.1426 17.3473C57.123 19.4706 57.1203 21.594 57.1346 23.7173C57.1347 23.7381 57.1283 23.7585 57.1163 23.7755C57.1043 23.7926 57.0872 23.8054 57.0676 23.8123C57.0073 23.836 56.9419 23.8433 56.878 23.8334C56.8141 23.8236 56.7539 23.797 56.7036 23.7563C56.6949 23.7501 56.6874 23.7423 56.6816 23.7333L52.1096 16.3403C52.095 16.3189 52.0755 16.3022 52.0516 16.2923ZM62.6776 13.2943C64.8256 13.2943 66.0046 13.2953 66.2126 13.2983C66.2338 13.299 66.2539 13.3079 66.2686 13.3233C66.276 13.3308 66.2818 13.3397 66.2857 13.3495C66.2897 13.3593 66.2917 13.3698 66.2916 13.3803C66.2886 14.4403 66.2886 15.8763 66.2906 17.6863C66.2906 17.7913 66.2786 17.8643 66.2536 17.9033C66.2444 17.9173 66.2314 17.9285 66.2162 17.9355C66.2011 17.9426 66.1842 17.9453 66.1676 17.9433C66.151 17.9413 66.1354 17.9346 66.1227 17.924C66.1099 17.9133 66.1005 17.8992 66.0956 17.8833C65.8826 17.2073 65.6746 16.5583 65.4726 15.9353C65.2046 15.1023 64.7046 13.9183 63.8026 13.6403C63.7857 13.6351 63.7679 13.634 63.7505 13.6369C63.7332 13.6399 63.7167 13.6469 63.7026 13.6573C63.6881 13.6677 63.6763 13.6814 63.6682 13.6972C63.66 13.713 63.6557 13.7305 63.6556 13.7483L63.6546 20.9203C63.6546 21.4643 63.6886 22.0063 63.7596 22.5473C63.8056 22.9023 63.9676 23.1823 64.2456 23.3873C64.4036 23.5033 64.6516 23.5543 64.8116 23.6513C64.8283 23.662 64.8412 23.6777 64.8484 23.6962C64.8556 23.7146 64.8568 23.7349 64.8519 23.7541C64.8469 23.7733 64.8359 23.7905 64.8206 23.8031C64.8053 23.8157 64.7864 23.8231 64.7666 23.8243C64.7176 23.8253 64.0216 23.8263 62.6766 23.8263C61.3336 23.8263 60.6366 23.8263 60.5886 23.8243C60.5688 23.8229 60.55 23.8153 60.5349 23.8027C60.5197 23.79 60.5089 23.7729 60.504 23.7537C60.4992 23.7345 60.5005 23.7143 60.5077 23.6959C60.515 23.6776 60.5279 23.6619 60.5446 23.6513C60.7046 23.5543 60.9526 23.5033 61.1096 23.3873C61.3886 23.1823 61.5496 22.9023 61.5956 22.5473C61.6666 22.0073 61.7016 21.4643 61.7016 20.9203L61.6986 13.7483C61.6981 13.7308 61.6937 13.7136 61.6856 13.698C61.6776 13.6825 61.6661 13.669 61.652 13.6586C61.6379 13.6482 61.6216 13.6411 61.6044 13.6379C61.5872 13.6348 61.5694 13.6356 61.5526 13.6403C60.6496 13.9183 60.1496 15.1023 59.8816 15.9353C59.6806 16.5583 59.4726 17.2073 59.2586 17.8833C59.2536 17.8992 59.2442 17.9133 59.2314 17.924C59.2187 17.9346 59.2031 17.9413 59.1866 17.9433C59.1701 17.9451 59.1534 17.9423 59.1384 17.9353C59.1234 17.9282 59.1107 17.9171 59.1016 17.9033C59.0766 17.8633 59.0646 17.7923 59.0646 17.6873C59.0666 15.8773 59.0656 14.4413 59.0626 13.3803C59.0625 13.3643 59.0673 13.3486 59.0762 13.3352C59.0851 13.3218 59.0977 13.3114 59.1126 13.3053C59.122 13.301 59.1322 13.2987 59.1426 13.2983C60.3209 13.2938 61.4992 13.2924 62.6776 13.2943Z" fill="white"/>
</svg>
