<svg width="242" height="250" viewBox="0 0 242 250" fill="none" xmlns="http://www.w3.org/2000/svg">
<path d="M230.906 153.722C201.166 159.857 199.121 149.788 199.121 149.788C230.521 103.195 243.648 44.0521 232.321 29.5771C201.417 -9.90793 147.922 8.76607 147.029 9.25007L146.742 9.30207C140.866 8.08207 134.291 7.35607 126.9 7.23507C113.444 7.01507 103.236 10.7631 95.4903 16.6371C95.4903 16.6371 0.0603171 -22.6769 4.49932 66.0811C5.44332 84.9631 31.5633 208.954 62.7173 171.503C74.1043 157.808 85.1073 146.229 85.1073 146.229C90.5713 149.859 97.1133 151.711 103.971 151.046L104.504 150.594C104.338 152.294 104.414 153.957 104.717 155.926C96.6913 164.893 99.0503 166.467 83.0063 169.77C66.7713 173.116 76.3083 179.072 82.5353 180.63C90.0843 182.517 107.548 185.191 119.348 168.672L118.878 170.557C122.022 173.076 124.23 186.94 123.86 199.509C123.49 212.077 123.243 220.706 125.72 227.446C128.199 234.186 130.668 249.351 151.76 244.832C169.383 241.055 178.516 231.268 179.787 214.942C180.688 203.336 182.729 205.052 182.857 194.675L184.494 189.763C186.381 174.03 184.794 168.954 195.651 171.315L198.291 171.547C206.281 171.91 216.741 170.261 222.88 167.408C236.098 161.274 243.938 151.031 230.904 153.722H230.906Z" fill="white" fill-opacity="0.6"/>
<path d="M101.076 74.525C98.3962 74.152 95.9692 74.497 94.7412 75.427C94.0512 75.95 93.8372 76.556 93.7792 76.973C93.6252 78.078 94.3992 79.3 94.8752 79.93C96.2212 81.714 98.1872 82.94 100.133 83.21C100.415 83.25 100.696 83.268 100.975 83.268C104.22 83.268 107.171 80.741 107.431 78.876C107.756 76.54 104.365 74.982 101.076 74.525ZM189.86 74.599C189.604 72.768 186.346 72.246 183.254 72.676C180.166 73.106 177.172 74.5 177.422 76.335C177.622 77.762 180.199 80.198 183.249 80.198C183.507 80.198 183.767 80.181 184.029 80.144C186.065 79.862 187.559 78.569 188.269 77.824C189.349 76.688 189.975 75.422 189.86 74.599Z" fill="white"/>
<path d="M240.802 153.025C239.668 149.596 236.018 148.493 229.954 149.745C211.949 153.461 205.501 150.887 203.384 149.328C217.379 128.008 228.892 102.236 235.103 78.1911C238.045 66.8011 239.67 56.2231 239.803 47.6011C239.95 38.1381 238.338 31.1841 235.014 26.9361C221.612 9.81107 201.942 0.625065 178.132 0.373065C161.763 0.189065 147.933 4.37806 145.252 5.55606C139.606 4.15206 133.451 3.29006 126.75 3.18006C114.462 2.98106 103.84 5.92306 95.0459 11.9201C91.2259 10.4981 81.3539 7.10906 69.2809 5.16406C48.4089 1.80406 31.8229 4.35007 19.9869 12.7351C5.86394 22.7411 -0.656062 40.6271 0.606938 65.8951C1.03194 74.3961 5.87594 100.548 13.5199 125.593C23.5819 158.557 34.5199 177.218 46.0279 181.057C47.3749 181.506 48.9279 181.82 50.6409 181.82C54.8389 181.82 59.9859 179.928 65.3409 173.49C71.8725 165.655 78.629 158.009 85.6019 150.564C90.1259 152.992 95.0959 154.348 100.179 154.484C100.189 154.617 100.202 154.75 100.214 154.882C99.339 155.925 98.4822 156.984 97.6439 158.057C94.1219 162.528 93.3889 163.459 82.0519 165.793C78.8269 166.459 70.2619 168.224 70.1359 174.228C69.9999 180.788 80.2609 183.543 81.4299 183.835C85.5039 184.855 89.4289 185.358 93.1719 185.358C102.275 185.358 110.286 182.366 116.688 176.577C116.491 199.963 117.466 223.007 120.274 230.028C122.574 235.776 128.192 249.823 145.938 249.822C148.542 249.822 151.408 249.519 154.561 248.843C173.082 244.873 181.125 236.687 184.236 218.64C185.901 208.995 188.758 185.964 190.102 173.61C192.938 174.495 196.589 174.9 200.536 174.899C208.768 174.899 218.267 173.15 224.224 170.385C230.916 167.277 242.992 159.651 240.802 153.025ZM196.696 69.5451C196.635 73.1921 196.133 76.5031 195.601 79.9591C195.028 83.6761 194.436 87.5191 194.287 92.1841C194.14 96.7241 194.707 101.444 195.255 106.009C196.363 115.229 197.5 124.721 193.099 134.087C192.368 132.792 191.717 131.453 191.149 130.078C190.602 128.752 189.414 126.622 187.769 123.674C181.37 112.198 166.385 85.3241 174.056 74.3581C176.341 71.0941 182.14 67.7381 196.696 69.5451ZM179.052 7.75806C200.386 8.22906 217.262 16.2101 229.21 31.4781C238.374 43.1891 228.283 96.4761 199.07 142.447C198.776 142.074 198.481 141.701 198.184 141.33L197.814 140.868C205.363 128.401 203.887 116.066 202.573 105.13C202.033 100.642 201.523 96.4031 201.653 92.4211C201.787 88.2011 202.345 84.5811 202.885 81.0811C203.548 76.7681 204.223 72.3051 204.037 67.0441C204.176 66.4921 204.232 65.8401 204.159 65.0661C203.684 60.0211 197.924 44.9221 186.184 31.2561C179.762 23.7811 170.397 15.4161 157.61 9.77407C163.11 8.63407 170.631 7.57106 179.052 7.75806ZM59.6739 168.778C53.7739 175.872 49.6999 174.512 48.3599 174.066C39.6299 171.154 29.4999 152.702 20.5689 123.442C12.8409 98.1241 8.32494 72.6651 7.96694 65.5261C6.83894 42.9481 12.3119 27.2131 24.2349 18.7571C43.6389 4.99706 75.5409 13.2331 88.3599 17.4101C88.1759 17.5921 87.9839 17.7621 87.8019 17.9471C66.7659 39.1911 67.2649 75.4871 67.3169 77.7061C67.3149 78.5621 67.3869 79.7741 67.4849 81.4411C67.8469 87.5461 68.5209 98.9081 66.7209 111.775C65.0489 123.732 68.7349 135.435 76.8319 143.884C77.6629 144.75 78.5363 145.573 79.4489 146.352C75.8449 150.212 68.0119 158.748 59.6739 168.778ZM82.1529 138.785C75.6269 131.975 72.6629 122.503 74.0199 112.795C75.9199 99.2031 75.2189 87.3651 74.8419 81.0051C74.7889 80.1151 74.7419 79.3351 74.7149 78.7201C77.7879 75.9951 92.0289 68.3651 102.185 70.6921C106.819 71.7531 109.643 74.9091 110.817 80.3371C116.893 108.44 111.621 120.153 107.385 129.566C106.512 131.505 105.687 133.338 104.983 135.234L104.437 136.7C103.055 140.406 101.769 143.852 100.972 147.124C94.0339 147.104 87.2849 144.14 82.1529 138.784V138.785ZM83.2179 176.685C81.1919 176.179 79.3699 175.3 78.3009 174.571C79.1939 174.151 80.7829 173.579 83.5389 173.011C96.8759 170.266 98.9359 168.328 103.434 162.617C104.465 161.307 105.634 159.823 107.253 158.015L107.255 158.013C109.666 155.313 110.769 155.771 112.769 156.601C114.39 157.271 115.969 159.303 116.609 161.539C116.912 162.595 117.252 164.599 116.139 166.159C106.743 179.315 93.0509 179.146 83.2179 176.685ZM153.017 241.637C136.701 245.133 130.924 236.808 127.117 227.291C124.66 221.147 123.452 193.441 124.309 162.844C124.32 162.437 124.262 162.044 124.15 161.674C124.05 160.943 123.897 160.221 123.694 159.512C122.42 155.06 119.315 151.336 115.59 149.792C114.11 149.179 111.394 148.054 108.13 148.889C108.826 146.021 110.033 142.782 111.342 139.275L111.891 137.8C112.509 136.137 113.285 134.414 114.105 132.59C118.538 122.742 124.609 109.253 118.02 78.7801C115.552 67.3661 107.31 61.7921 94.8159 63.0871C87.3259 63.8621 80.4729 66.8841 77.0549 68.6171C76.3199 68.9891 75.6479 69.3491 75.0199 69.6991C75.9739 58.1991 79.5779 36.7071 93.0599 23.1091C101.549 14.5491 112.854 10.3211 126.628 10.5491C153.768 10.9931 171.172 24.9211 180.994 36.5281C189.458 46.5291 194.041 56.6041 195.87 62.0381C182.115 60.6391 172.76 63.3541 168.018 70.1341C157.701 84.8821 173.662 113.506 181.333 127.263C182.74 129.784 183.954 131.963 184.336 132.889C186.834 138.943 190.068 142.985 192.429 145.935C193.153 146.839 193.855 147.716 194.389 148.482C190.223 149.683 182.74 152.458 183.422 166.329C182.872 173.289 178.961 205.875 176.974 217.388C174.351 232.598 168.754 238.263 153.017 241.638V241.637ZM221.121 163.701C216.861 165.678 209.732 167.161 202.96 167.48C195.48 167.83 191.672 166.642 190.776 165.911C190.356 157.267 193.573 156.364 196.978 155.408C197.513 155.258 198.035 155.111 198.539 154.935C198.852 155.19 199.195 155.443 199.571 155.691C205.583 159.659 216.306 160.087 231.445 156.962L231.611 156.929C229.569 158.838 226.075 161.4 221.121 163.701Z" fill="white"/>
</svg>
