<svg width="120" height="60" viewBox="0 0 120 60" fill="none" xmlns="http://www.w3.org/2000/svg">
<path fill-rule="evenodd" clip-rule="evenodd" d="M72.0379 40.703C66.2379 44.986 57.8039 47.273 50.5519 47.273C40.3839 47.273 31.2289 43.513 24.3039 37.257C23.7599 36.765 24.2469 36.095 24.8999 36.477C32.3739 40.827 41.6149 43.442 51.1599 43.442C57.5979 43.442 64.6799 42.11 71.1919 39.346C72.1759 38.928 72.9979 39.99 72.0359 40.704M74.4539 37.94C73.7139 36.99 69.5539 37.492 67.6719 37.714C67.1019 37.784 67.0149 37.287 67.5279 36.93C70.8479 34.592 76.2979 35.267 76.9349 36.05C77.5719 36.833 76.7699 42.3 73.6489 44.908C73.1689 45.308 72.7129 45.095 72.9259 44.564C73.6259 42.814 75.1979 38.893 74.4539 37.94Z" fill="#FF9900"/>
<path fill-rule="evenodd" clip-rule="evenodd" d="M67.803 20.427V18.155C67.8009 18.0789 67.8144 18.0032 67.8426 17.9325C67.8707 17.8618 67.913 17.7976 67.9668 17.7438C68.0206 17.69 68.0848 17.6477 68.1555 17.6195C68.2262 17.5914 68.3019 17.5779 68.378 17.58H78.55C78.876 17.58 79.138 17.815 79.138 18.155V20.1C79.134 20.426 78.858 20.853 78.372 21.528L73.102 29.054C75.062 29.006 77.128 29.298 78.904 30.299C79.304 30.525 79.404 30.856 79.444 31.183V33.608C79.444 33.938 79.078 34.326 78.694 34.126C75.564 32.486 71.407 32.306 67.947 34.143C67.594 34.335 67.224 33.951 67.224 33.621V31.318C67.224 30.948 67.228 30.318 67.598 29.755L73.705 20.997H68.4C68.074 20.997 67.812 20.767 67.812 20.427M30.694 34.605H27.6C27.304 34.583 27.07 34.361 27.047 34.078V18.194C27.047 17.876 27.313 17.624 27.643 17.624H30.529C30.829 17.637 31.069 17.868 31.091 18.154V20.23H31.148C31.901 18.223 33.316 17.287 35.222 17.287C37.159 17.287 38.369 18.223 39.24 20.23C39.99 18.223 41.69 17.287 43.515 17.287C44.812 17.287 46.231 17.822 47.097 19.024C48.077 20.36 47.877 22.302 47.877 24.004L47.87 34.03C47.87 34.348 47.604 34.605 47.274 34.605H44.174C43.874 34.583 43.617 34.335 43.617 34.03V25.6C43.617 24.93 43.677 23.258 43.53 22.623C43.3 21.557 42.607 21.256 41.71 21.256C40.96 21.256 40.178 21.756 39.86 22.558C39.542 23.36 39.573 24.7 39.573 25.601V34.021C39.573 34.339 39.307 34.596 38.977 34.596H35.877C35.564 34.574 35.32 34.326 35.32 34.021L35.316 25.601C35.316 23.829 35.608 21.221 33.409 21.221C31.185 21.221 31.272 23.763 31.272 25.601V34.021C31.272 34.339 31.006 34.596 30.676 34.596M87.896 17.3C92.488 17.3 94.974 21.244 94.974 26.258C94.974 31.103 92.227 34.946 87.896 34.946C83.396 34.946 80.931 31.002 80.931 26.088C80.931 21.143 83.417 17.288 87.896 17.288M87.922 20.531C85.642 20.531 85.497 23.639 85.497 25.576C85.497 27.513 85.467 31.661 87.895 31.661C90.293 31.661 90.407 28.318 90.407 26.281C90.407 24.941 90.35 23.338 89.947 22.067C89.599 20.961 88.907 20.53 87.923 20.53M100.93 34.605H97.848C97.548 34.583 97.291 34.335 97.291 34.03L97.287 18.142C97.313 17.85 97.57 17.624 97.883 17.624H100.753C101.023 17.637 101.245 17.82 101.306 18.068V20.498H101.363C102.229 18.326 103.443 17.29 105.581 17.29C106.981 17.29 108.323 17.79 109.194 19.162C109.994 20.432 109.994 22.57 109.994 24.107V34.107C109.959 34.387 109.702 34.607 109.398 34.607H106.3C106.017 34.585 105.782 34.377 105.752 34.107V25.48C105.752 23.743 105.952 21.2 103.815 21.2C103.062 21.2 102.37 21.705 102.015 22.47C101.58 23.44 101.523 24.407 101.523 25.478V34.032C101.519 34.35 101.249 34.607 100.918 34.607M59.693 27.007C59.693 28.213 59.723 29.207 59.113 30.289C58.621 31.159 57.838 31.695 56.971 31.695C55.783 31.695 55.086 30.79 55.086 29.453C55.086 26.815 57.45 26.336 59.691 26.336V27.006M62.811 34.55C62.606 34.733 62.311 34.746 62.081 34.624C61.054 33.771 60.867 33.374 60.305 32.561C58.607 34.293 57.402 34.811 55.203 34.811C52.596 34.811 50.571 33.205 50.571 29.988C50.571 27.476 51.929 25.766 53.871 24.93C55.551 24.19 57.897 24.06 59.691 23.855V23.455C59.691 22.719 59.748 21.849 59.311 21.213C58.937 20.643 58.214 20.408 57.574 20.408C56.394 20.408 55.344 21.013 55.088 22.268C55.036 22.548 54.831 22.821 54.548 22.834L51.548 22.512C51.296 22.455 51.013 22.252 51.088 21.862C51.776 18.222 55.068 17.126 58.008 17.126C59.514 17.126 61.482 17.526 62.67 18.666C64.176 20.072 64.032 21.948 64.032 23.99V28.813C64.032 30.263 64.632 30.898 65.199 31.683C65.395 31.963 65.439 32.297 65.186 32.506L62.82 34.57L62.816 34.56M19.12 27.017C19.12 28.223 19.15 29.217 18.54 30.299C18.048 31.169 17.27 31.705 16.398 31.705C15.21 31.705 14.518 30.8 14.518 29.463C14.518 26.825 16.882 26.346 19.118 26.346V27.016M22.238 34.56C22.033 34.743 21.738 34.756 21.508 34.634C20.481 33.781 20.308 33.384 19.732 32.571C18.034 34.303 16.832 34.821 14.63 34.821C12.028 34.822 10 33.216 10 30C10 27.488 11.362 25.778 13.3 24.942C14.98 24.202 17.326 24.072 19.12 23.867V23.467C19.12 22.731 19.177 21.861 18.746 21.225C18.366 20.655 17.646 20.42 17.009 20.42C15.829 20.42 14.776 21.025 14.509 22.28C14.457 22.56 14.252 22.833 13.974 22.846L10.97 22.524C10.718 22.467 10.44 22.264 10.51 21.874C11.202 18.234 14.49 17.138 17.43 17.138C18.936 17.138 20.904 17.538 22.092 18.678C23.598 20.084 23.454 21.96 23.454 24.002V28.825C23.454 30.275 24.054 30.91 24.621 31.695C24.821 31.975 24.865 32.309 24.611 32.518L22.251 34.57L22.241 34.56" fill="#C4C4C4"/>
</svg>
