<svg width="238" height="49" viewBox="0 0 238 49" fill="none" xmlns="http://www.w3.org/2000/svg">
<g clip-path="url(#clip0_216_52)">
<path d="M24.2639 1.22222H19.6039V24.1109C19.6039 32.7075 16.5818 35.2928 8.92033 35.2928C2.49783 35.2722 0 32.792 0 29.5761C0 28.8401 0.272611 26.4654 2.62344 26.4654C4.95328 26.4654 5.10028 28.0418 5.10028 30.6061C5.10028 31.6778 5.54128 33.7795 8.29072 33.7795C12.6568 33.7795 14.6086 31.783 14.6086 24.7208V1.22222H10.1169V0.00292969H24.2639V1.22222ZM25.2086 29.8281C24.4319 29.8281 23.7603 30.08 23.2357 30.6268C22.6901 31.1731 22.4171 31.8246 22.4171 32.6023C22.4171 33.38 22.6901 34.0315 23.2357 34.5362C23.7813 35.0825 24.4319 35.3349 25.2086 35.3349C25.9852 35.3349 26.6358 35.0829 27.2028 34.5362C27.7484 34.0315 28.021 33.38 28.021 32.6023C28.021 31.8036 27.7484 31.1731 27.2028 30.6268C26.6572 30.0804 26.0058 29.8281 25.2086 29.8281ZM55.5384 29.8281C54.7618 29.8281 54.1112 30.08 53.5656 30.6268C53.0199 31.1735 52.7676 31.8246 52.7676 32.6023C52.7676 33.38 53.0196 34.0315 53.5656 34.5362C54.1322 35.0825 54.7828 35.3349 55.5384 35.3349C56.315 35.3349 56.9866 35.0829 57.5322 34.5362C58.0778 34.0315 58.3508 33.38 58.3508 32.6023C58.3508 31.8036 58.0778 31.1731 57.5322 30.6268C56.9866 30.0804 56.315 29.8281 55.5384 29.8281ZM46.7437 0.00292969C57.5952 0.00292969 59.4424 4.10121 59.4424 9.9445C59.4424 15.7247 56.4406 19.9492 45.7151 19.9492L42.021 19.9702V28.6925C42.021 29.7646 42.147 30.2903 42.399 30.8783C42.6716 31.5719 43.2596 32.0976 44.1408 32.4547C44.7704 32.686 45.7364 32.8122 46.9957 32.8539V34.4096H32.0931V32.8539C33.3523 32.8122 34.2969 32.6856 34.9265 32.4127C35.7661 32.0552 36.3327 31.5298 36.5851 30.8363C36.8157 30.2268 36.9417 30.1217 36.9417 28.02V1.22183H32.8697V0.0235726L46.7437 0.00292969ZM44.8334 18.6255C51.3823 18.6255 54.6354 15.7882 54.6354 10.2393C54.6354 4.71145 52.8302 1.32736 44.5604 1.32736L42 1.36902V18.6462H44.8334M102.051 30.7529C101.862 30.1435 101.757 29.3865 101.757 28.4199V1.22222H105.346V0.00292969H96.5934C96.488 0.318362 86.0564 26.2972 86.0564 26.2972C86.0334 26.3391 86.0001 26.3746 85.9597 26.4003C85.9194 26.4261 85.8732 26.4412 85.8254 26.4444C85.6994 26.4444 85.6154 26.3813 85.5738 26.2972C85.5738 26.2972 74.4913 0.318362 74.3657 0.00292969H64.6473V1.2008H68.6778V27.3478C68.6778 27.3478 68.5938 29.765 68.5938 29.786C68.5308 30.4165 68.3208 30.9843 68.0058 31.4465C67.6702 31.9302 67.1452 32.3083 66.4526 32.5606C65.9906 32.7078 65.2983 32.8126 64.4587 32.8336V34.389H74.3447V32.8336C73.5264 32.792 73.1694 32.7078 72.6864 32.5606C71.9728 32.3293 71.4478 31.9718 71.0912 31.4675C70.7762 31.0049 70.5662 30.4375 70.5032 29.765C70.5032 29.765 70.3982 27.3478 70.3982 27.3268V4.81581H70.9648C70.9648 4.81581 83.4746 34.0735 83.6216 34.41H84.6708L96.53 5.15227H96.824V28.4195C96.824 29.4285 96.7186 30.2272 96.53 30.8367C96.299 31.5513 95.7954 32.077 95.0608 32.4341C94.5152 32.686 93.6966 32.8126 92.6053 32.8543V34.41H106.123V32.8543C105.031 32.7916 104.191 32.6654 103.625 32.413C102.786 32.0143 102.282 31.4675 102.051 30.7529ZM120.228 9.20927C126.902 9.20927 131.856 13.7702 131.856 22.1354C131.856 32.8757 124.132 35.4186 120.081 35.4186C118.024 35.4186 108.516 34.6199 108.516 22.3663C108.495 14.0015 113.029 9.20927 120.228 9.20927ZM120.144 33.9057C124.993 33.9057 126.483 30.8791 126.483 22.0723C126.483 15.956 126.462 10.7432 120.144 10.7432C114.309 10.7432 113.889 15.7878 113.889 22.5135C113.889 31.1941 114.707 33.9057 120.144 33.9057ZM150.726 9.58741C146.423 9.58741 144.933 12.1307 143.736 14.7371C143.736 14.7371 143.421 14.7161 143.4 14.7161C143.379 14.7371 142.539 9.7977 142.539 9.7977H134.353V11.1011H138.845V28.0418C138.845 29.7229 138.761 31.0263 138.32 31.7409C137.817 32.5606 136.788 32.8761 135.067 32.8761H134.332V34.4314H148.332V32.8761H147.577C145.751 32.8761 144.806 32.4769 144.324 31.6778C143.883 30.9846 143.673 29.7864 143.673 28.0418V19.256C143.673 16.2925 146.045 12.8874 148.731 12.8874C151.544 12.8874 151.628 16.923 154.651 15.4731C156.791 14.4638 156.309 9.58741 150.726 9.58741ZM206.453 31.8877C207.334 31.8877 208.405 30.9628 208.635 29.2186H209.475C209.244 33.2121 207.292 34.8096 204.039 34.8096C201.142 34.8096 199.547 32.7495 199.274 31.047C197.574 32.8547 195.055 35.125 191.067 35.125C187.478 35.125 184.686 32.3503 184.518 29.1976C184.036 21.1264 194.635 20.265 199.106 19.8654V15.7457C199.106 14.2535 198.77 13.0556 198.12 12.1518C197.427 11.2058 196.189 10.7436 194.425 10.7436C192.914 10.7436 191.802 11.1221 191.088 11.8574C190.416 12.5719 190.123 13.3496 189.913 14.6951C189.619 16.5234 188.842 17.238 187.457 17.238C186.849 17.238 186.366 17.0698 185.925 16.6917C185.505 16.3346 185.296 15.8088 185.296 15.0522C185.296 13.4337 185.925 12.3196 187.521 11.1011C189.158 9.84014 191.719 9.20967 195.182 9.20967C198.792 9.20967 201.29 9.8822 202.57 11.1852C203.871 12.4882 204.229 14.0015 204.229 16.2084V26.5071L204.313 29.6602C204.48 31.0684 204.941 31.8877 206.453 31.8877ZM199.127 21.3787C195.685 21.3787 189.43 23.6697 189.43 28.2517C189.43 29.6809 189.934 32.5392 193.376 32.5392C194.719 32.5392 196.545 31.7615 198.938 29.5761L199.043 29.4706C199.127 29.4075 199.127 29.3654 199.127 29.2817V21.3787ZM235.041 31.7409C234.432 30.9846 234.306 29.3237 234.306 28.0628V16.9234C234.306 15.3049 234.096 13.9388 233.487 12.8037C232.879 11.7105 232.018 10.8702 230.948 10.3238C229.856 9.77744 228.618 9.50407 227.253 9.50407C222.342 9.50407 220.201 12.3418 219.236 14.2543H218.858L217.997 9.79847H210.378V11.0805H214.198V28.0425C214.198 29.3459 214.093 30.2915 213.904 30.9223C213.694 31.6786 213.211 32.1833 212.497 32.4987C212.036 32.6876 211.322 32.8142 210.399 32.8558V34.4116H222.489V32.8558C221.272 32.7507 220.453 32.4356 220.012 31.8052C219.529 31.1322 219.32 29.9975 219.32 28.3159V21.8215C219.32 19.11 219.298 16.4825 220.222 14.8431C221.23 13.0778 223.055 12.0898 225.091 12.0898C226.938 12.0898 227.925 12.6786 228.513 13.8555C229.164 15.1795 229.31 17.6387 229.31 19.5932V27.6434C229.31 28.9885 229.269 29.9554 229.185 30.5859C229.038 31.3219 228.87 31.9313 228.282 32.3095C227.862 32.6039 227.212 32.7931 226.351 32.8558V34.3901H238V32.8336C236.51 32.7705 235.628 32.5186 235.041 31.7409ZM180.384 8.22131C181.706 7.80113 182.798 8.11616 183.154 9.60882C183.322 10.3234 183.176 11.1852 182.756 11.9415C182.357 12.6981 181.664 13.2449 180.573 13.5809C179.628 13.8964 178.621 13.8964 177.508 13.644C178.033 14.7792 178.474 16.3766 178.474 18.247C178.474 24.7624 173.499 26.7173 168.189 27.5371C162.774 28.3775 161.388 29.0294 161.388 30.7315C161.388 31.8877 162.102 32.5602 165.859 32.5602C173.625 32.9388 177.089 32.4972 179.524 35.8392C180.279 36.9109 180.657 38.3404 180.657 40.1271C180.657 41.4301 180.321 42.7962 179.587 44.1207C178.894 45.4443 177.592 46.6005 175.724 47.5464C173.856 48.4923 171.253 48.997 168.063 48.997C165.649 48.997 163.907 48.8077 161.262 48.009C159.541 47.5047 157.274 46.1176 157.274 43.1962C157.274 42.313 157.421 41.5777 157.82 40.9472C158.261 40.2743 159.163 39.8752 159.919 40.0013C161.262 40.2327 161.661 41.4515 161.43 42.6074C161.157 43.7425 161.409 45.3399 162.711 46.1383C164.474 47.2314 166.405 47.4833 168.777 47.4833C171.547 47.4833 173.772 47 175.41 46.0962C177.173 45.1082 178.033 43.7838 178.033 42.1447C178.033 40.9469 177.613 40.022 176.795 39.3915C176.018 38.8241 174.948 38.4456 173.625 38.2778C172.387 38.1306 170.477 38.0258 167.811 38.0044C164.747 37.9417 162.312 37.5842 160.57 36.8696C158.996 36.2181 157.778 35.0619 157.778 32.9181C157.778 29.3662 161.095 28.2731 164.831 27.5164C165.062 27.4748 165.062 27.1593 164.789 27.1173C160.402 26.1924 158.408 23.6701 158.408 18.4997C158.408 14.065 161.41 9.21006 168.231 9.21006C172.45 9.21006 174.864 10.6392 176.124 11.7954C176.502 12.0895 177.362 12.0684 177.866 11.9212C178.369 11.753 178.747 11.1856 178.936 10.177C179.188 9.08311 179.649 8.45263 180.384 8.22131ZM168.357 26.15C171.337 26.15 173.478 25.2461 173.478 18.4152C173.478 13.644 172.324 10.5333 168.357 10.5333C164.957 10.5333 163.361 13.9384 163.361 18.4994C163.34 24.9938 165.166 26.15 168.357 26.15Z" fill="#C4C4C4"/>
</g>
<defs>
<clipPath id="clip0_216_52">
<rect width="238" height="49" fill="white"/>
</clipPath>
</defs>
</svg>
