<svg width="185" height="129" viewBox="0 0 185 129" fill="none" xmlns="http://www.w3.org/2000/svg">
<path d="M118.777 64.8279C119.448 63.8095 119.79 62.3682 119.79 60.5391C119.79 58.7125 119.448 57.2737 118.779 56.2662C118.113 55.2687 117.108 54.783 115.707 54.783C114.302 54.783 113.302 55.2687 112.649 56.2662C111.987 57.2737 111.651 58.7125 111.651 60.5391C111.651 62.3682 111.987 63.812 112.649 64.8279C113.302 65.838 114.302 66.3262 115.707 66.3262C117.108 66.3262 118.113 65.8354 118.777 64.8279Z" fill="white"/>
<path d="M155.235 56.267C154.802 56.9253 154.521 57.7712 154.372 58.7862H161.989C161.912 57.808 161.721 56.9253 161.28 56.267C160.616 55.2696 159.69 54.7185 158.288 54.7185C156.886 54.7185 155.889 55.2671 155.235 56.267Z" fill="white"/>
<path d="M69.7067 56.267C69.2737 56.9253 68.9954 57.7712 68.8433 58.7862H76.4597C76.3834 57.808 76.1917 56.9253 75.7536 56.267C75.0872 55.2696 74.1606 54.7185 72.7592 54.7185C71.3576 54.7185 70.3602 55.2671 69.7067 56.267Z" fill="white"/>
<path d="M45.1423 65.147C45.2839 65.3622 45.3416 65.446 45.759 65.7793C45.759 65.7793 46.717 66.5356 48.8902 66.4041C50.4176 66.312 51.7719 66.0205 51.7719 66.0205V61.1655C51.7719 61.1655 50.4046 60.9394 48.8744 60.9185C46.6961 60.89 45.7774 61.6898 45.7774 61.6898C45.1343 62.1446 44.8247 62.8188 44.8247 63.7584C44.8247 64.3514 44.9322 64.8187 45.1423 65.147Z" fill="white"/>
<path fill-rule="evenodd" clip-rule="evenodd" d="M100.039 4.03399C90.8888 4.03399 82.616 7.87409 76.674 14.0656C70.1358 5.51703 59.8235 0 48.22 0C28.4564 0 12.4329 15.9997 12.4329 35.737C12.4329 40.7895 13.4855 45.5953 15.3778 49.9498C6.18628 55.3223 0 65.3639 0 76.8653C0 94.0282 13.7689 107.938 30.753 107.937C32.921 107.937 35.0339 107.712 37.0732 107.279C41.7397 119.939 53.8971 128.964 68.1619 128.964C81.8598 128.964 93.6132 120.645 98.6575 108.778C102.495 110.65 106.805 111.701 111.362 111.701C122.246 111.701 131.729 105.704 136.704 96.828C139.28 97.3481 141.901 97.6094 144.529 97.6077C166.466 97.6077 184.25 79.6684 184.25 57.5375C184.25 35.409 166.466 17.4694 144.529 17.4694C138.81 17.4694 133.374 18.6901 128.463 20.8841C122.813 10.816 112.201 4.03399 100.039 4.03399ZM108.755 45.1382C109.16 45.2143 109.47 45.2852 109.81 45.3902C109.884 45.4189 110.092 45.5212 110.007 45.7633L109.192 48.0051C109.123 48.1726 109.076 48.2748 108.727 48.1701C108.64 48.1433 108.512 48.1073 108.181 48.0361C107.942 47.9858 107.625 47.9498 107.304 47.9498C106.882 47.9498 106.496 48.0017 106.157 48.1123C105.826 48.2195 105.524 48.4062 105.262 48.6684C104.997 48.9364 104.682 49.3275 104.514 49.8082C104.181 50.7722 104.019 51.7881 103.967 52.1139L103.95 52.2169H107.364C107.651 52.2169 107.739 52.3484 107.713 52.5611L107.315 54.7813C107.254 55.1037 106.957 55.0937 106.957 55.0937H103.44L101.033 68.7081C100.781 70.1142 100.464 71.3219 100.094 72.2934C99.7211 73.2775 99.33 73.996 98.7078 74.6845C98.1307 75.3193 97.48 75.7891 96.7346 76.0596C95.9917 76.3268 95.0939 76.4658 94.1124 76.4658C93.6425 76.4658 93.1417 76.4583 92.5479 76.3193C92.12 76.2171 91.8863 76.1434 91.5714 76.0329C91.4382 75.9834 91.3327 75.8176 91.4064 75.6057C91.4826 75.393 92.1124 73.6627 92.1995 73.4349C92.3092 73.1594 92.5848 73.2641 92.5848 73.2641C92.7766 73.3453 92.9106 73.4006 93.1627 73.4508C93.4173 73.5028 93.7606 73.5455 94.0177 73.5455C94.4826 73.5455 94.908 73.4877 95.2748 73.3637C95.7212 73.2147 95.9792 72.9576 96.2514 72.6108C96.5353 72.2482 96.7631 71.7524 96.9967 71.0908C97.2363 70.4191 97.4515 69.5347 97.6374 68.4585L100.031 55.0937H97.6718C97.3887 55.0937 97.2966 54.9597 97.325 54.7495L97.7212 52.5267C97.7848 52.2068 98.0788 52.2169 98.0788 52.2169H100.503L100.635 51.4949C100.997 49.3509 101.719 47.7208 102.782 46.6498C103.85 45.5738 105.373 45.0278 107.305 45.0278C107.858 45.0278 108.346 45.0649 108.755 45.1382ZM61.7942 68.8103C61.9727 68.8103 62.1013 68.6662 62.1013 68.4878V45.6946C62.1013 45.5164 61.9727 45.3719 61.7942 45.3719H58.9622C58.7837 45.3719 58.6577 45.5164 58.6577 45.6946V68.4878C58.6577 68.6662 58.7837 68.8103 58.9622 68.8103H61.7942ZM26.7389 67.2668C26.6838 67.214 26.5923 67.1277 26.6879 66.8781L27.4339 64.8095C27.5519 64.4527 27.8223 64.5708 27.9299 64.6395C28.017 64.6914 28.095 64.7425 28.1764 64.7953C28.2863 64.8665 28.4021 64.941 28.5545 65.0298C30.7513 66.4184 32.7854 66.4318 33.4232 66.4318C35.0663 66.4318 36.0846 65.5608 36.0846 64.3899V64.3271C36.0846 63.0474 34.521 62.5667 32.7046 62.0081L32.2973 61.8833C29.8011 61.1697 27.1372 60.1455 27.1372 56.9881V56.9253C27.1372 53.9304 29.5518 51.8417 33.011 51.8417L33.3889 51.8392C35.4202 51.8392 37.3836 52.4296 38.8035 53.2931C38.932 53.3718 39.058 53.5183 38.9872 53.7185C38.9216 53.9019 38.2915 55.597 38.2181 55.7863C38.0842 56.1406 37.7194 55.9044 37.7194 55.9044C36.4754 55.2168 34.5436 54.6758 32.9163 54.6758C31.4518 54.6758 30.5069 55.453 30.5069 56.5082V56.5735C30.5069 57.8072 32.1218 58.3315 33.9945 58.9403L34.3205 59.0458C36.8061 59.8306 39.4542 60.9177 39.4542 63.91V63.9729C39.4542 67.209 37.1078 69.219 33.3284 69.219C31.4728 69.219 29.6983 68.9283 27.8192 67.9309L27.599 67.8069C27.3192 67.6503 27.0411 67.4954 26.7666 67.2952L26.7389 67.2668ZM82.0683 67.2668C82.0139 67.214 81.9217 67.1277 82.018 66.8781L82.7634 64.8095C82.8731 64.4712 83.1939 64.5943 83.2617 64.6395L83.3882 64.7207C83.5356 64.8171 83.6763 64.9092 83.884 65.0298C86.0808 66.4184 88.115 66.4318 88.7524 66.4318C90.3956 66.4318 91.4165 65.5608 91.4165 64.3899V64.3271C91.4165 63.0483 89.852 62.5675 88.0372 62.0098L87.6268 61.8833C85.1302 61.1697 82.4661 60.1455 82.4661 56.9881V56.9253C82.4661 53.9304 84.8806 51.8417 88.3403 51.8417L88.718 51.8392C90.7498 51.8392 92.7129 52.4296 94.1325 53.2931C94.2615 53.3718 94.3879 53.5183 94.3167 53.7185C94.2506 53.9019 93.6208 55.597 93.5471 55.7863C93.4139 56.1406 93.0488 55.9044 93.0488 55.9044C91.8051 55.2168 89.873 54.6758 88.2457 54.6758C86.7809 54.6758 85.8362 55.453 85.8362 56.5082V56.5735C85.8362 57.8063 87.4509 58.3315 89.3219 58.9395L89.6502 59.0458C92.1359 59.8306 94.7841 60.9177 94.7841 63.91V63.9729C94.7841 67.209 92.4374 69.219 88.6578 69.219C86.8027 69.219 85.028 68.9283 83.1487 67.9309L82.9276 67.8061C82.6487 67.6503 82.3706 67.4954 82.0968 67.2952L82.0817 67.2785L82.0683 67.2668ZM121.51 54.4078C122.152 55.1766 122.635 56.1004 122.945 57.1481C123.254 58.1899 123.41 59.3314 123.41 60.5391C123.41 61.7468 123.255 62.8883 122.945 63.9301C122.635 64.977 122.152 65.9016 121.51 66.6704C120.866 67.4418 120.05 68.059 119.087 68.497C118.121 68.935 116.985 69.1587 115.706 69.1587C114.425 69.1587 113.289 68.935 112.323 68.497C111.36 68.059 110.543 67.4418 109.9 66.6704C109.254 65.8991 108.774 64.9745 108.462 63.9301C108.155 62.8908 108 61.7493 108 60.5391C108 59.3289 108.155 58.1899 108.462 57.1481C108.774 56.1037 109.258 55.1799 109.898 54.4078C110.543 53.6364 111.357 53.0167 112.323 52.5653C113.286 52.1164 114.425 51.8886 115.706 51.8886C116.985 51.8886 118.124 52.1164 119.087 52.5653C120.052 53.0167 120.866 53.6364 121.51 54.4078ZM148.45 65.6462C148.45 65.6462 148.747 65.5306 148.851 65.838L149.626 67.9769C149.726 68.2424 149.497 68.3521 149.497 68.3521C148.306 68.822 146.647 69.1503 145.031 69.1503C142.295 69.1503 140.198 68.3605 138.802 66.8061C137.409 65.2576 136.703 63.1421 136.703 60.5257C136.703 59.3155 136.875 58.1715 137.217 57.1296C137.56 56.0844 138.074 55.1607 138.752 54.3893C139.429 53.6172 140.285 52.9983 141.293 52.5494C142.303 52.0979 143.484 51.8718 144.81 51.8718C145.697 51.8718 146.495 51.9271 147.177 52.0326C147.907 52.1423 148.872 52.402 149.282 52.5619C149.356 52.5912 149.56 52.6934 149.476 52.9321C149.279 53.4966 149.122 53.9287 148.957 54.3835L148.701 55.0903C148.583 55.4153 148.335 55.3081 148.335 55.3081C147.295 54.9798 146.303 54.8299 145.001 54.8299C143.439 54.8299 142.269 55.3525 141.5 56.3709C140.726 57.3943 140.295 58.7385 140.29 60.5257C140.285 62.4888 140.773 63.9402 141.645 64.838C142.513 65.7358 143.726 66.1897 145.253 66.1897C145.875 66.1897 146.455 66.1478 146.983 66.0666C147.502 65.9854 147.99 65.8221 148.45 65.6462ZM163.626 54.0543C164.062 54.5217 164.726 55.5426 164.993 56.5526C165.634 58.803 165.364 60.7661 165.317 61.1069L165.311 61.1538C165.281 61.4269 165.001 61.4319 165.001 61.4319L154.322 61.4218C154.39 63.0432 154.776 64.1931 155.566 64.9753C156.334 65.7391 157.563 66.2274 159.219 66.2299C161.531 66.2349 162.637 65.8112 163.394 65.5214L163.602 65.4427C163.602 65.4427 163.9 65.3346 164.004 65.6261L164.702 67.5816C164.844 67.9125 164.731 68.028 164.613 68.0934C163.944 68.4635 162.319 69.1511 159.235 69.1612C157.736 69.1645 156.432 68.9493 155.359 68.5339C154.277 68.1176 153.374 67.5188 152.674 66.755C151.97 65.9963 151.45 65.0809 151.125 64.0407C150.802 63.0097 150.639 61.8624 150.639 60.6312C150.639 59.4219 150.797 58.2745 151.109 57.2226C151.419 56.1648 151.907 55.2327 152.556 54.4505C153.204 53.6657 154.03 53.0359 155.015 52.5736C155.996 52.1122 157.206 51.8886 158.54 51.8886C159.684 51.8886 160.729 52.1356 161.6 52.5083C162.266 52.7973 162.938 53.314 163.626 54.0543ZM78.0977 54.0543C78.5332 54.5217 79.1948 55.5426 79.462 56.5526C80.1027 58.7946 79.8372 60.7518 79.7895 61.1027L79.7828 61.1538C79.7543 61.4269 79.4729 61.4319 79.4729 61.4319L68.7935 61.4218C68.8619 63.0432 69.2476 64.1931 70.0377 64.9753C70.8068 65.7391 72.0351 66.2274 73.6886 66.2299C76.004 66.2349 77.1095 65.8112 77.8657 65.5214L78.0743 65.4427C78.0743 65.4427 78.3707 65.3346 78.4788 65.6261L79.1739 67.5816C79.3154 67.9125 79.2032 68.028 79.0851 68.0934C78.4151 68.4635 76.7912 69.1511 73.7069 69.1612C72.2082 69.1645 70.9038 68.9493 69.8302 68.5339C68.7489 68.1176 67.8461 67.5188 67.1452 66.755C66.442 65.9963 65.9223 65.0809 65.5968 64.0407C65.2738 63.0097 65.1111 61.8624 65.1111 60.6312C65.1111 59.4219 65.2712 58.2745 65.5809 57.2226C65.8906 56.1648 66.3787 55.2327 67.0271 54.4505C67.6753 53.6657 68.5021 53.0359 69.4863 52.5736C70.4678 52.1122 71.6804 51.8886 73.0112 51.8886C74.1556 51.8886 75.2001 52.1356 76.0718 52.5083C76.7385 52.7973 77.4101 53.314 78.0977 54.0543ZM48.3417 58.2259C49.0136 58.2259 49.5753 58.2444 50.0084 58.2753C50.0084 58.2753 50.8509 58.3516 51.7696 58.483V58.0308C51.7696 56.6087 51.473 55.9345 50.8904 55.4881C50.292 55.0284 49.405 54.798 48.25 54.798C48.25 54.798 45.6517 54.7637 43.5966 55.8818C43.5019 55.937 43.4206 55.9689 43.4206 55.9689C43.4206 55.9689 43.1659 56.0576 43.0715 55.7955L42.3155 53.7637C42.2 53.4698 42.4099 53.3383 42.4099 53.3383C43.3706 52.5879 45.7039 52.1365 45.7039 52.1365C46.4756 51.9815 47.7642 51.871 48.5649 51.871C50.6986 51.871 52.3494 52.3676 53.4702 53.3492C54.5962 54.3332 55.1683 55.9211 55.1683 58.0626L55.1737 67.8295C55.1737 67.8295 55.1947 68.1126 54.9294 68.1779C54.681 68.2458 54.4316 68.3094 54.1814 68.3697C53.8245 68.451 52.5385 68.7106 51.4913 68.8898C50.4335 69.0707 49.3416 69.1595 48.2472 69.1595C47.2078 69.1595 46.2577 69.0632 45.4204 68.8714C44.5702 68.6796 43.8378 68.3622 43.2446 67.9292C42.6463 67.4962 42.1766 66.9343 41.851 66.2601C41.5255 65.5876 41.3629 64.766 41.3629 63.8213C41.3629 62.8925 41.5545 62.0625 41.9325 61.359C42.3063 60.6614 42.8362 60.0584 43.4809 59.5978C44.1266 59.1363 44.8773 58.7871 45.7118 58.5643C46.5412 58.3407 47.4258 58.2259 48.3417 58.2259ZM135.984 52.3894C136.055 52.4154 136.225 52.5309 136.144 52.773C136.044 53.0636 135.525 54.5259 135.341 55.0141C135.273 55.2 135.157 55.3265 134.953 55.3031C134.953 55.3031 134.338 55.159 133.78 55.159C133.391 55.159 132.843 55.2084 132.347 55.3608C131.861 55.5099 131.417 55.7754 131.026 56.1531C130.637 56.5342 130.323 57.0643 130.092 57.7259C129.856 58.3951 129.737 59.4604 129.737 60.5282V68.4861C129.738 68.5724 129.704 68.6553 129.643 68.7156C129.583 68.7767 129.501 68.8119 129.415 68.8119H126.609C126.431 68.8119 126.283 68.6654 126.283 68.4861V52.5577C126.283 52.376 126.412 52.2319 126.591 52.2319H129.328C129.507 52.2319 129.635 52.376 129.635 52.5577V53.8567C130.044 53.3081 130.78 52.8249 131.441 52.5259C132.108 52.2269 132.853 52.0008 134.194 52.082C134.895 52.1273 135.803 52.319 135.984 52.3894Z" fill="white"/>
</svg>
