<svg width="97" height="35" viewBox="0 0 97 35" fill="none" xmlns="http://www.w3.org/2000/svg">
<path d="M22.5621 18.5405C22.522 14.3419 25.9922 12.3246 26.1483 12.2286C24.1951 9.37481 21.1612 8.98256 20.0805 8.93854C17.4989 8.67437 15.0414 10.4595 13.7286 10.4595C12.4158 10.4595 10.3945 8.97456 8.25321 9.01859C5.43546 9.05861 2.83786 10.6556 1.38496 13.1772C-1.53685 18.2443 0.640497 25.7689 3.49426 29.8875C4.89113 31.9007 6.54815 34.1701 8.7335 34.0861C10.8388 34.002 11.6313 32.7253 14.1689 32.7253C16.7064 32.7253 17.4229 34.0861 19.6443 34.0461C21.9057 34.002 23.3385 31.9888 24.7234 29.9675C26.3164 27.6261 26.9768 25.3647 27.0168 25.2446C26.9648 25.2246 22.6101 23.5556 22.5621 18.5405Z" fill="#C4C4C4"/>
<path d="M18.3873 6.20895C19.548 4.80408 20.3285 2.85487 20.1163 0.909668C18.4473 0.97771 16.426 2.02236 15.2293 3.42723C14.1566 4.66799 13.2161 6.65322 13.4722 8.5584C15.3254 8.70249 17.2305 7.60981 18.3873 6.20895ZM37.1989 22.6671L35.2777 28.4907H32.8082L39.0961 9.98328H41.9779L48.2898 28.4907H45.7362L43.759 22.6671H37.1989ZM43.2666 20.798L41.4575 15.4707C41.0453 14.2619 40.7731 13.1652 40.4969 12.0926H40.4449C40.1687 13.1893 39.8685 14.314 39.5123 15.4427L37.7032 20.794L43.2666 20.798ZM50.1629 19.5372C50.1629 17.8361 50.1109 16.4593 50.0508 15.1985H52.2202L52.3323 17.4799H52.3843C53.3729 15.8589 54.9379 14.8983 57.1072 14.8983C60.3212 14.8983 62.7347 17.616 62.7347 21.6545C62.7347 26.4335 59.8249 28.7909 56.695 28.7909C54.9379 28.7909 53.4009 28.0224 52.6044 26.7056H52.5524V33.9261H50.1629V19.5372ZM52.5484 23.0794C52.5484 23.4396 52.6004 23.7638 52.6605 24.068C53.1007 25.741 54.5536 26.8977 56.2867 26.8977C58.8403 26.8977 60.3252 24.8125 60.3252 21.7626C60.3252 19.0969 58.9243 16.8235 56.3708 16.8235C54.7257 16.8235 53.1888 18.0042 52.7165 19.8174C52.6324 20.1176 52.5524 20.4778 52.5524 20.806L52.5484 23.0794ZM65.2322 19.5372C65.2322 17.8361 65.1802 16.4593 65.1202 15.1985H67.2895L67.4016 17.4799H67.4536C68.4422 15.8589 70.0072 14.8983 72.1765 14.8983C75.3905 14.8983 77.804 17.616 77.804 21.6545C77.804 26.4335 74.8942 28.7909 71.7643 28.7909C70.0072 28.7909 68.4702 28.0224 67.6738 26.7056H67.6217V33.9261H65.2322V19.5372ZM67.6217 23.0794C67.6217 23.4396 67.6738 23.7638 67.7338 24.068C68.1741 25.741 69.627 26.8977 71.36 26.8977C73.9136 26.8977 75.3985 24.8125 75.3985 21.7626C75.3985 19.0969 73.9977 16.8235 71.4441 16.8235C69.7991 16.8235 68.2621 18.0042 67.7898 19.8174C67.7058 20.1176 67.6257 20.4778 67.6257 20.806L67.6217 23.0794ZM80.3056 8.99467H82.7231V28.4867H80.3056V8.99467ZM87.5821 22.2829C87.6341 25.5489 89.7234 26.8977 92.1369 26.8977C93.866 26.8977 94.9106 26.5976 95.8152 26.2133L96.2274 27.9424C95.3789 28.3266 93.922 28.7669 91.8087 28.7669C87.7182 28.7669 85.2726 26.0772 85.2726 22.0668C85.2726 18.0563 87.6341 14.8983 91.5045 14.8983C95.8432 14.8983 96.9959 18.7127 96.9959 21.1582C96.9959 21.6545 96.9439 22.0347 96.9118 22.2829H87.5821ZM94.6664 20.5538C94.6945 19.0169 94.0341 16.6274 91.3164 16.6274C88.8709 16.6274 87.8022 18.8808 87.6101 20.5538H94.6664Z" fill="#C4C4C4"/>
</svg>
