<svg
  width="32"
  height="32"
  viewBox="0 0 57 65"
  fill="none"
  xmlns="http://www.w3.org/2000/svg"
>
  <g clipPath="url(#clip0_215_29)">
    <path
      d="M39.3578 28.6564C40.7269 27.8719 42.4196 27.8719 43.7889 28.6564L47.3274 30.6932C47.4403 30.7562 47.563 30.8057 47.6873 30.8402C47.7124 30.8496 47.7372 30.8555 47.7659 30.8591C47.8886 30.8877 48.0129 30.903 48.1356 30.9088H48.1546C48.1699 30.9088 48.1796 30.9088 48.1949 30.903C48.3079 30.903 48.4208 30.8841 48.5337 30.8591C48.5529 30.8591 48.5741 30.8535 48.5931 30.8438C48.7118 30.8096 48.8286 30.7599 48.9379 30.7026C48.9474 30.697 48.9627 30.6932 48.9722 30.6874L56.0456 26.6141C56.5532 26.324 56.8633 25.7857 56.8633 25.2015V17.0569C56.8633 16.4728 56.5532 15.9326 56.0456 15.6444L48.9722 11.5711C48.4648 11.281 47.8406 11.281 47.3332 11.5711L40.2596 15.6444C40.2596 15.6444 40.2406 15.6597 40.2309 15.6635C40.1238 15.7265 40.0185 15.8067 39.9304 15.8945C39.915 15.9097 39.9055 15.9231 39.8902 15.9384C39.8116 16.0224 39.7427 16.1159 39.6795 16.2132C39.67 16.2285 39.6605 16.2419 39.6508 16.2629C39.5914 16.3717 39.5417 16.4843 39.5072 16.6064C39.4977 16.6313 39.4919 16.6561 39.488 16.6847C39.4593 16.8069 39.4383 16.9348 39.4383 17.0684V21.1417C39.4383 22.7126 38.5919 24.1785 37.2229 24.9631C35.8536 25.7476 34.1611 25.7476 32.7918 24.9631L29.2532 22.9263C29.1403 22.8635 29.0177 22.8137 28.8933 22.7793C28.8683 22.7698 28.8434 22.764 28.8147 22.7604C28.6921 22.7317 28.5677 22.7165 28.4451 22.7107H28.3915C28.2728 22.7107 28.1599 22.7298 28.0469 22.7546C28.0277 22.7546 28.0066 22.7604 27.9932 22.764C27.8708 22.7985 27.7576 22.8482 27.6428 22.9074C27.6333 22.913 27.6179 22.9168 27.6084 22.9227L20.5349 26.9959C20.0275 27.286 19.7173 27.8243 19.7173 28.4083V36.5531C19.7173 37.1372 20.0275 37.6772 20.5349 37.9656L27.6084 42.0389C27.6084 42.0389 27.6333 42.0484 27.6428 42.0542C27.7559 42.1134 27.8688 42.1629 27.9932 42.1973C28.0124 42.2029 28.0336 42.2068 28.0526 42.2126C28.1655 42.2373 28.2786 42.2526 28.3915 42.2565C28.4069 42.2565 28.4164 42.2621 28.4317 42.2621H28.4509C28.5736 42.2621 28.6979 42.2432 28.8206 42.2126C28.8454 42.2068 28.8702 42.1973 28.8989 42.1934C29.0216 42.159 29.1403 42.1095 29.2591 42.0464L32.7976 40.0099C34.1667 39.2254 35.8594 39.2254 37.2265 40.0099C38.59 40.7944 39.4422 42.2621 39.4422 43.8331V47.9063C39.4422 48.0381 39.4612 48.1659 39.4919 48.2882C39.4977 48.3129 39.5014 48.3415 39.5111 48.3665C39.5454 48.4847 39.5953 48.6011 39.6527 48.71C39.6622 48.7253 39.6719 48.7386 39.6834 48.7595C39.7427 48.857 39.8116 48.9504 39.8958 49.0346C39.9112 49.0496 39.9209 49.0632 39.9362 49.0783C40.0243 49.1661 40.1277 49.2405 40.2367 49.3094C40.2462 49.315 40.256 49.3245 40.2655 49.3284L47.3389 53.4016C47.5897 53.5486 47.875 53.6231 48.1565 53.6231C48.4381 53.6231 48.7233 53.5486 48.9742 53.4016L56.0476 49.3284C56.5552 49.0382 56.8652 48.4999 56.8652 47.916V39.7712C56.8652 39.1871 56.5552 38.6471 56.0476 38.3586L48.9742 34.2854C48.9742 34.2854 48.9493 34.2759 48.9398 34.2701C48.8267 34.2109 48.7138 34.1614 48.5911 34.127C48.5721 34.1231 48.5568 34.1231 48.5376 34.1175C48.4247 34.0889 48.3059 34.0736 48.193 34.0736H48.1392C48.0168 34.0736 47.8942 34.0928 47.7698 34.1231C47.7448 34.1289 47.7199 34.1384 47.6971 34.1423C47.5744 34.1767 47.4557 34.2262 47.3369 34.2893L43.7984 36.326C42.4349 37.1103 40.7366 37.1103 39.3694 36.326C38.006 35.5415 37.1538 34.0736 37.1538 32.5026C37.1538 30.9316 38.0001 29.4657 39.3694 28.6795L39.3636 28.6603L39.3578 28.6564Z"
      fill="#1DC19C"
    />
    <path
      d="M0.819631 26.6216L7.89306 30.6949C8.1439 30.8419 8.42922 30.9163 8.7107 30.9163C8.99219 30.9163 9.27749 30.8419 9.52833 30.6949L16.6018 26.6216C16.6018 26.6216 16.6209 26.6063 16.6305 26.6024C16.7397 26.5396 16.8411 26.4593 16.9311 26.3715C16.9464 26.3562 16.956 26.3429 16.9713 26.3276C17.0498 26.2436 17.1188 26.15 17.1839 26.0527C17.1934 26.0374 17.203 26.0241 17.2126 26.003C17.272 25.8943 17.3218 25.7818 17.3562 25.6595C17.3658 25.6348 17.3715 25.61 17.3754 25.5814C17.4041 25.4591 17.4252 25.3313 17.4252 25.1996V21.1262C17.4252 19.5553 18.2715 18.0894 19.6406 17.3049C21.0098 16.5204 22.7025 16.5204 24.0716 17.3049L27.6101 19.3415C27.7233 19.4045 27.8457 19.4541 27.9703 19.4885C27.9951 19.498 28.0199 19.5038 28.0486 19.5076C28.1713 19.5362 28.29 19.5515 28.4183 19.5572H28.4375C28.4528 19.5572 28.4623 19.5515 28.4777 19.5515C28.5906 19.5515 28.7035 19.5324 28.8166 19.5076C28.8356 19.5076 28.8568 19.5019 28.876 19.4923C28.9984 19.458 29.1114 19.4083 29.2264 19.3492C29.2359 19.3453 29.2513 19.3396 29.2608 19.3339L36.3342 15.2606C36.8418 14.9704 37.1518 14.4322 37.1518 13.8481V5.70338C37.1518 5.11931 36.8418 4.57912 36.3342 4.2909L29.2608 0.217599C28.7534 -0.0725331 28.1292 -0.0725331 27.6218 0.217599L20.5483 4.2909C20.5483 4.2909 20.5291 4.30619 20.5196 4.30999C20.4123 4.37299 20.3089 4.45315 20.2189 4.54096C20.2036 4.55622 20.194 4.56959 20.1787 4.58485C20.1002 4.66885 20.0313 4.76237 19.9662 4.85972C19.9566 4.87498 19.947 4.88834 19.9374 4.90935C19.8781 5.01815 19.8283 5.13076 19.7938 5.25293C19.7843 5.27774 19.7785 5.30256 19.7747 5.33118C19.744 5.45335 19.7249 5.58124 19.7249 5.71486V9.78816C19.7249 11.3591 18.8785 12.825 17.5094 13.6114C16.146 14.3959 14.4476 14.3959 13.0785 13.6114L9.53984 11.5748C9.42685 11.5118 9.3043 11.4621 9.17983 11.4278C9.15494 11.4182 9.13004 11.4125 9.10133 11.4087C8.97878 11.3801 8.85431 11.3648 8.73176 11.3591H8.67815C8.55944 11.3591 8.44645 11.3782 8.33347 11.403C8.31434 11.403 8.29327 11.4087 8.27986 11.4125C8.15731 11.4469 8.04434 11.4965 7.92944 11.5557C7.91987 11.5614 7.90454 11.5652 7.89498 11.5709L0.821544 15.6443C0.314112 15.9344 0.00390625 16.4727 0.00390625 17.0567V25.2015C0.00390625 25.7854 0.314112 26.3256 0.821544 26.6138V26.6235L0.819631 26.6216Z"
      fill="#2A6DCE"
    />
    <path
      d="M36.3245 49.6832L29.2512 45.6099C29.2512 45.6099 29.2263 45.6004 29.2166 45.5946C29.1037 45.5354 28.9908 45.4876 28.8662 45.4534C28.8472 45.4476 28.826 45.4437 28.8068 45.4381C28.6939 45.4132 28.581 45.3942 28.4622 45.3942H28.4087C28.286 45.3942 28.1617 45.4132 28.039 45.4437C28.0142 45.4495 27.9894 45.459 27.9643 45.4629C27.8419 45.4973 27.7232 45.5468 27.6044 45.6099L24.0657 47.6466C22.7024 48.4309 21.0039 48.4309 19.6406 47.6466C18.2714 46.8621 17.4251 45.3942 17.4251 43.8233V39.75C17.4251 39.6183 17.4059 39.4904 17.3753 39.3662C17.3715 39.3415 17.3657 39.3129 17.3562 39.2881C17.3217 39.1697 17.2719 39.0533 17.2125 38.9444C17.203 38.9291 17.1934 38.9158 17.1838 38.8949C17.1244 38.7976 17.0555 38.704 16.9713 38.62C16.9559 38.6047 16.9464 38.5914 16.933 38.5761C16.8449 38.4883 16.7415 38.4138 16.6323 38.3452C16.6228 38.3394 16.6132 38.3299 16.6036 38.326L9.53019 34.2528C9.02276 33.9626 8.3985 33.9626 7.89107 34.2528L0.817639 38.326C0.310205 38.6161 0 39.1544 0 39.7386V47.8832C0 48.4673 0.310205 49.0075 0.817639 49.2957L7.89107 53.369C7.89107 53.369 7.91596 53.3785 7.92555 53.3843C8.03851 53.4435 8.1515 53.4912 8.2702 53.5255C8.28936 53.5313 8.31043 53.5352 8.32958 53.5408C8.44254 53.5655 8.55168 53.5808 8.66849 53.5847C8.68382 53.5847 8.69723 53.5885 8.70872 53.5885H8.72787C8.85042 53.5885 8.97487 53.5694 9.09167 53.5388C9.11657 53.5332 9.14531 53.5235 9.17018 53.5199C9.29273 53.4854 9.41146 53.4357 9.53019 53.3729L13.0688 51.3361C14.4379 50.5516 16.1307 50.5516 17.4998 51.3361C18.8631 52.1207 19.7152 53.5885 19.7152 55.1595V59.2328C19.7152 59.3645 19.7344 59.4923 19.765 59.6163C19.7708 59.6413 19.7746 59.6699 19.7842 59.6947C19.8186 59.813 19.8684 59.9295 19.9278 60.0382C19.9373 60.0534 19.9469 60.0668 19.9565 60.0879C20.0159 60.1852 20.0848 60.2788 20.169 60.3627C20.1844 60.378 20.1939 60.3914 20.2073 60.4066C20.2954 60.4945 20.3988 60.5689 20.508 60.6376C20.5176 60.6434 20.5271 60.6529 20.5386 60.6567L27.612 64.73C27.8629 64.877 28.1483 64.9515 28.4296 64.9515C28.7112 64.9515 28.9964 64.877 29.2473 64.73L36.3207 60.6567C36.8283 60.3666 37.1383 59.8283 37.1383 59.2442V51.0994C37.1383 50.5155 36.8283 49.9752 36.3207 49.687L36.3245 49.6832Z"
      fill="#1796E2"
    />
  </g>
  <defs>
    <clipPath id="clip0_215_29">
      <rect width="57" height="65" fill="white" />
    </clipPath>
  </defs>
</svg>
