<svg viewBox="0 0 24 24" fill="white" xmlns="http://www.w3.org/2000/svg">
	<path d="M12 0.297C5.373 0.297 0 5.67 0 12.297c0 5.289 3.438 9.773 8.207 11.387.6.111.793-.261.793-.577 0-.285-.011-1.04-.017-2.042-3.338.726-4.042-1.61-4.042-1.61-.546-1.387-1.333-1.756-1.333-1.756-1.089-.745.083-.729.083-.729 1.205.085 1.84 1.237 1.84 1.237 1.07 1.834 2.809 1.304 3.495.997.108-.775.418-1.305.762-1.606-2.665-.304-5.466-1.332-5.466-5.931 0-1.31.469-2.381 1.236-3.221-.124-.303-.535-1.523.117-3.176 0 0 1.008-.322 3.301 1.23a11.52 11.52 0 0 1 3.003-.404c1.018.005 2.045.138 3.003.404 2.291-1.553 3.297-1.23 3.297-1.23.653 1.653.242 2.873.119 3.176.77.84 1.235 1.911 1.235 3.221 0 4.609-2.803 5.625-5.475 5.921.43.371.823 1.102.823 2.222 0 1.606-.015 2.898-.015 3.293 0 .319.192.694.801.576C20.565 22.066 24 17.584 24 12.297 24 5.67 18.627 0.297 12 0.297z" />
</svg>
