<svg width="239" height="239" viewBox="0 0 239 239" fill="none" xmlns="http://www.w3.org/2000/svg">
<g clip-path="url(#clip0_216_36)">
<path d="M239 117.071V112.868H233.781V106.334L233.605 106.388L228.702 107.888L228.606 107.917V112.868H220.868V110.11C220.868 108.826 221.155 107.843 221.721 107.188C222.283 106.54 223.087 106.211 224.112 106.211C224.849 106.211 225.612 106.384 226.38 106.727L226.573 106.813V102.386L226.482 102.353C225.766 102.096 224.791 101.966 223.583 101.966C222.061 101.966 220.678 102.297 219.471 102.954C218.264 103.611 217.315 104.55 216.65 105.743C215.987 106.935 215.65 108.312 215.65 109.836V112.868H212.016V117.071H215.65V134.779H220.868V117.071H228.606V128.324C228.606 132.958 230.792 135.307 235.103 135.307C235.811 135.307 236.557 135.224 237.318 135.061C238.093 134.894 238.621 134.728 238.932 134.55L239 134.509V130.267L238.788 130.407C238.505 130.596 238.152 130.75 237.739 130.865C237.324 130.982 236.977 131.04 236.708 131.04C235.698 131.04 234.951 130.768 234.488 130.231C234.019 129.689 233.781 128.741 233.781 127.416V117.071H239ZM200.364 131.041C198.471 131.041 196.978 130.413 195.925 129.176C194.867 127.933 194.33 126.16 194.33 123.909C194.33 121.585 194.867 119.767 195.926 118.502C196.979 117.245 198.458 116.607 200.322 116.607C202.131 116.607 203.571 117.216 204.603 118.419C205.639 119.627 206.166 121.431 206.166 123.782C206.166 126.161 205.671 127.989 204.695 129.211C203.726 130.424 202.269 131.041 200.364 131.041ZM200.596 112.34C196.983 112.34 194.114 113.399 192.068 115.487C190.023 117.575 188.986 120.465 188.986 124.077C188.986 127.507 189.998 130.267 191.994 132.277C193.991 134.288 196.707 135.306 200.068 135.306C203.57 135.306 206.383 134.233 208.428 132.116C210.473 130.002 211.509 127.139 211.509 123.612C211.509 120.128 210.537 117.348 208.618 115.351C206.699 113.353 204 112.34 200.596 112.34ZM180.574 112.34C178.116 112.34 176.084 112.969 174.531 114.208C172.968 115.455 172.176 117.091 172.176 119.069C172.176 120.098 172.347 121.012 172.683 121.787C173.022 122.564 173.546 123.249 174.243 123.823C174.934 124.393 176 124.99 177.414 125.597C178.602 126.086 179.488 126.5 180.051 126.826C180.602 127.146 180.992 127.467 181.213 127.78C181.427 128.086 181.536 128.505 181.536 129.022C181.536 130.494 180.433 131.21 178.165 131.21C177.324 131.21 176.364 131.034 175.313 130.688C174.269 130.347 173.284 129.847 172.392 129.207L172.175 129.051V134.075L172.255 134.112C172.993 134.452 173.924 134.74 175.021 134.966C176.116 135.192 177.111 135.307 177.975 135.307C180.642 135.307 182.789 134.676 184.356 133.429C185.933 132.173 186.733 130.5 186.733 128.452C186.733 126.975 186.302 125.709 185.454 124.687C184.612 123.674 183.15 122.744 181.111 121.922C179.487 121.27 178.446 120.729 178.017 120.313C177.603 119.912 177.393 119.345 177.393 118.626C177.393 117.989 177.652 117.478 178.185 117.065C178.721 116.649 179.468 116.438 180.405 116.438C181.274 116.438 182.164 116.575 183.048 116.844C183.932 117.113 184.709 117.474 185.357 117.915L185.57 118.06V113.295L185.488 113.26C184.89 113.004 184.102 112.784 183.144 112.606C182.191 112.43 181.326 112.34 180.574 112.34ZM158.574 131.041C156.681 131.041 155.187 130.413 154.135 129.176C153.076 127.933 152.541 126.161 152.541 123.909C152.541 121.585 153.077 119.767 154.136 118.502C155.188 117.245 156.667 116.607 158.532 116.607C160.341 116.607 161.781 117.216 162.813 118.419C163.849 119.627 164.375 121.431 164.375 123.782C164.375 126.161 163.88 127.989 162.905 129.211C161.936 130.424 160.48 131.041 158.574 131.041ZM158.807 112.34C155.193 112.34 152.323 113.399 150.278 115.487C148.233 117.575 147.196 120.465 147.196 124.077C147.196 127.509 148.208 130.267 150.205 132.277C152.201 134.288 154.917 135.306 158.278 135.306C161.78 135.306 164.593 134.233 166.638 132.116C168.683 130.002 169.719 127.139 169.719 123.612C169.719 120.128 168.747 117.348 166.828 115.351C164.908 113.353 162.209 112.34 158.807 112.34ZM139.276 116.663V112.868H134.122V134.778H139.276V123.57C139.276 121.665 139.708 120.099 140.561 118.916C141.402 117.748 142.524 117.156 143.894 117.156C144.358 117.156 144.879 117.232 145.444 117.384C146.002 117.534 146.407 117.698 146.645 117.87L146.862 118.027V112.831L146.779 112.795C146.299 112.591 145.62 112.488 144.76 112.488C143.465 112.488 142.306 112.904 141.313 113.724C140.442 114.444 139.812 115.431 139.331 116.663H139.276ZM124.892 112.34C122.528 112.34 120.419 112.847 118.625 113.847C116.828 114.849 115.437 116.279 114.491 118.097C113.55 119.912 113.072 122.031 113.072 124.394C113.072 126.464 113.535 128.364 114.451 130.038C115.368 131.715 116.666 133.028 118.308 133.937C119.948 134.846 121.844 135.307 123.943 135.307C126.392 135.307 128.483 134.817 130.16 133.852L130.228 133.813V129.091L130.011 129.249C129.251 129.803 128.403 130.244 127.489 130.562C126.579 130.88 125.748 131.041 125.02 131.041C122.997 131.041 121.374 130.408 120.196 129.16C119.015 127.911 118.416 126.157 118.416 123.95C118.416 121.729 119.04 119.93 120.271 118.602C121.498 117.279 123.124 116.607 125.105 116.607C126.799 116.607 128.45 117.181 130.011 118.314L130.228 118.471V113.495L130.158 113.456C129.57 113.127 128.768 112.855 127.773 112.649C126.782 112.444 125.813 112.34 124.892 112.34ZM109.522 112.868H104.368V134.778H109.522V112.868ZM106.998 103.535C106.15 103.535 105.41 103.823 104.802 104.396C104.192 104.97 103.882 105.692 103.882 106.545C103.882 107.384 104.188 108.093 104.793 108.652C105.393 109.209 106.135 109.491 106.998 109.491C107.861 109.491 108.606 109.209 109.213 108.653C109.825 108.093 110.135 107.384 110.135 106.545C110.135 105.722 109.834 105.007 109.239 104.419C108.644 103.832 107.89 103.535 106.998 103.535ZM94.1387 111.252V134.778H99.3984V104.205H92.1187L82.8657 126.914L73.8862 104.205H66.3101V134.778H71.2528V111.25H71.4225L80.9047 134.778H84.6348L93.969 111.252H94.1387Z" fill="#C4C4C4"/>
<path d="M24.2453 118.234H0V93.989H24.2453V118.234Z" fill="#F1511B"/>
<path d="M51.0148 118.234H26.77V93.989H51.0148V118.234Z" fill="#80CC28"/>
<path d="M24.2446 145.013H0V120.768H24.2446V145.013Z" fill="#00ADEF"/>
<path d="M51.0148 145.013H26.77V120.768H51.0148V145.013Z" fill="#FBBC09"/>
</g>
<defs>
<clipPath id="clip0_216_36">
<rect width="239" height="239" fill="white"/>
</clipPath>
</defs>
</svg>
